<svg width="21" height="19" viewBox="0 0 21 19" fill="none" xmlns="http://www.w3.org/2000/svg">
<path d="M1.5 16.8H10.5V18.3H1.5C1.29688 18.3 1.10547 18.261 0.925781 18.1829C0.746094 18.1047 0.585938 17.9954 0.445312 17.8547C0.304688 17.7141 0.195312 17.554 0.117188 17.3743C0.0390625 17.1946 0 17.0032 0 16.8V1.80005C0 1.59692 0.0390625 1.40552 0.117188 1.22583C0.195312 1.04614 0.304688 0.885986 0.445312 0.745361C0.585938 0.604736 0.746094 0.495361 0.925781 0.417236C1.10547 0.339111 1.29688 0.300049 1.5 0.300049H19.5C19.7031 0.300049 19.8945 0.339111 20.0742 0.417236C20.2539 0.495361 20.4141 0.604736 20.5547 0.745361C20.6953 0.885986 20.8047 1.04614 20.8828 1.22583C20.9609 1.40552 21 1.59692 21 1.80005V9.30005H19.5V1.80005H1.5V16.8ZM10.5 3.30005H3V4.80005H10.5V3.30005ZM3 6.30005H10.5V7.80005H3V6.30005ZM7.5 9.30005H3V10.8H7.5V9.30005ZM16.5 10.05L17.9297 12.8157L21 13.2844L18.75 15.3L19.3359 18.3L16.5 16.6125L13.6641 18.3L14.25 15.3L12 13.2844L15.1406 12.8157L16.5 10.05Z" fill="#023363"/>
</svg>
