<svg width="21" height="22" viewBox="0 0 21 22" fill="none" xmlns="http://www.w3.org/2000/svg">
<path d="M6.16406 5.87439C5.91406 6.04626 5.64844 6.17517 5.36719 6.26111C5.08594 6.34705 4.79688 6.39001 4.5 6.39001C4.10938 6.39001 3.72656 6.3158 3.35156 6.16736C2.97656 6.01892 2.64844 5.80408 2.36719 5.52283C2.08594 5.24158 1.87109 4.91345 1.72266 4.53845C1.57422 4.16345 1.5 3.78064 1.5 3.39001C1.5 3.09314 1.54297 2.80408 1.62891 2.52283C1.71484 2.24158 1.84375 1.97595 2.01562 1.72595C2.17188 1.47595 2.36328 1.2572 2.58984 1.0697C2.81641 0.882202 3.07031 0.733765 3.35156 0.62439C3.63281 0.49939 3.91797 0.425171 4.20703 0.401733C4.49609 0.378296 4.78906 0.390015 5.08594 0.43689C5.38281 0.49939 5.66016 0.600952 5.91797 0.741577C6.17578 0.882202 6.41406 1.05408 6.63281 1.2572C6.83594 1.47595 7.00781 1.71423 7.14844 1.97205C7.28906 2.22986 7.39062 2.5072 7.45312 2.80408C7.5 3.10095 7.51172 3.39392 7.48828 3.68298C7.46484 3.97205 7.39062 4.2572 7.26562 4.53845C7.15625 4.8197 7.00781 5.07361 6.82031 5.30017C6.63281 5.52673 6.41406 5.71814 6.16406 5.87439ZM5.34375 2.14783C5.21875 2.0697 5.08203 2.0072 4.93359 1.96033C4.78516 1.91345 4.64062 1.89001 4.5 1.89001C4.29688 1.89001 4.10547 1.92908 3.92578 2.0072C3.74609 2.08533 3.58594 2.1947 3.44531 2.33533C3.30469 2.47595 3.19531 2.63611 3.11719 2.8158C3.03906 2.99548 3 3.18689 3 3.39001C3 3.53064 3.02344 3.67517 3.07031 3.82361C3.11719 3.97205 3.17969 4.10876 3.25781 4.23376C3.33594 4.34314 3.43359 4.4447 3.55078 4.53845C3.66797 4.6322 3.79688 4.71033 3.9375 4.77283C4.0625 4.83533 4.19922 4.87439 4.34766 4.89001C4.49609 4.90564 4.64062 4.89783 4.78125 4.86658C4.9375 4.83533 5.08203 4.78455 5.21484 4.71423C5.34766 4.64392 5.46094 4.55408 5.55469 4.4447C5.66406 4.35095 5.75391 4.23767 5.82422 4.10486C5.89453 3.97205 5.94531 3.82751 5.97656 3.67126C6.00781 3.53064 6.01562 3.38611 6 3.23767C5.98438 3.08923 5.94531 2.95251 5.88281 2.82751C5.82031 2.68689 5.74219 2.55798 5.64844 2.4408C5.55469 2.32361 5.45312 2.22595 5.34375 2.14783ZM16.5 7.89001V7.14001C16.5 6.89001 16.4766 6.64392 16.4297 6.40173C16.3828 6.15955 16.3125 5.92908 16.2188 5.71033C16.125 5.47595 16.0078 5.2572 15.8672 5.05408C15.7266 4.85095 15.5703 4.66345 15.3984 4.49158C15.2266 4.3197 15.0391 4.16345 14.8359 4.02283C14.6328 3.8822 14.4141 3.76501 14.1797 3.67126C13.9609 3.57751 13.7305 3.5072 13.4883 3.46033C13.2461 3.41345 13 3.39001 12.75 3.39001H10.5V1.89001H12.75C13.4531 1.89001 14.125 2.02283 14.7656 2.28845C15.4062 2.55408 15.9688 2.93689 16.4531 3.43689C16.9531 3.92126 17.3359 4.48376 17.6016 5.12439C17.8672 5.76501 18 6.43689 18 7.14001V7.89001H16.5ZM3 13.89V14.64C3 15.14 3.09375 15.6205 3.28125 16.0814C3.46875 16.5424 3.74219 16.9447 4.10156 17.2885C4.44531 17.6478 4.84766 17.9213 5.30859 18.1088C5.76953 18.2963 6.25 18.39 6.75 18.39H9V19.89H6.75C6.04688 19.89 5.375 19.7572 4.73438 19.4916C4.09375 19.226 3.53125 18.8431 3.04688 18.3431C2.54688 17.8588 2.16406 17.2963 1.89844 16.6556C1.63281 16.015 1.5 15.3431 1.5 14.64V13.89H3ZM6.75 7.14001H2.25C1.95312 7.14001 1.66797 7.19861 1.39453 7.3158C1.12109 7.43298 0.875 7.59314 0.65625 7.79626C0.453125 8.01501 0.292969 8.26111 0.175781 8.53455C0.0585938 8.80798 0 9.09314 0 9.39001V10.89H1.5V9.39001C1.5 9.29626 1.51953 9.20251 1.55859 9.10876C1.59766 9.01501 1.64844 8.92908 1.71094 8.85095C1.78906 8.78845 1.875 8.73767 1.96875 8.69861C2.0625 8.65955 2.15625 8.64001 2.25 8.64001H6.75C6.84375 8.64001 6.9375 8.65955 7.03125 8.69861C7.125 8.73767 7.21094 8.78845 7.28906 8.85095C7.35156 8.92908 7.40234 9.01501 7.44141 9.10876C7.48047 9.20251 7.5 9.29626 7.5 9.39001V10.89H9V9.39001C9 9.09314 8.94141 8.80798 8.82422 8.53455C8.70703 8.26111 8.54688 8.01501 8.34375 7.79626C8.125 7.59314 7.87891 7.43298 7.60547 7.3158C7.33203 7.19861 7.04688 7.14001 6.75 7.14001ZM14.25 17.64C13.9531 17.64 13.668 17.6986 13.3945 17.8158C13.1211 17.933 12.875 18.0931 12.6562 18.2963C12.4531 18.515 12.293 18.7611 12.1758 19.0345C12.0586 19.308 12 19.5931 12 19.89V21.39H13.5V19.89C13.5 19.7963 13.5195 19.7025 13.5586 19.6088C13.5977 19.515 13.6484 19.4291 13.7109 19.351C13.7891 19.2885 13.875 19.2377 13.9688 19.1986C14.0625 19.1595 14.1562 19.14 14.25 19.14H18.75C18.8438 19.14 18.9375 19.1595 19.0312 19.1986C19.125 19.2377 19.2109 19.2885 19.2891 19.351C19.3516 19.4291 19.4023 19.515 19.4414 19.6088C19.4805 19.7025 19.5 19.7963 19.5 19.89V21.39H21V19.89C21 19.5931 20.9414 19.308 20.8242 19.0345C20.707 18.7611 20.5469 18.515 20.3438 18.2963C20.125 18.0931 19.8789 17.933 19.6055 17.8158C19.332 17.6986 19.0469 17.64 18.75 17.64H14.25ZM14.0156 15.5541C13.8438 15.3041 13.7148 15.0385 13.6289 14.7572C13.543 14.476 13.5 14.1869 13.5 13.89C13.5 13.4994 13.5742 13.1166 13.7227 12.7416C13.8711 12.3666 14.0859 12.0385 14.3672 11.7572C14.6484 11.476 14.9766 11.2611 15.3516 11.1127C15.7266 10.9642 16.1094 10.89 16.5 10.89C16.7969 10.89 17.0859 10.933 17.3672 11.0189C17.6484 11.1049 17.9141 11.2338 18.1641 11.4056C18.4141 11.5619 18.6328 11.7533 18.8203 11.9799C19.0078 12.2064 19.1562 12.4603 19.2656 12.7416C19.3906 13.0228 19.4648 13.308 19.4883 13.597C19.5117 13.8861 19.5 14.1791 19.4531 14.476C19.3906 14.7728 19.2891 15.0502 19.1484 15.308C19.0078 15.5658 18.8359 15.8041 18.6328 16.0228C18.4141 16.226 18.1758 16.3978 17.918 16.5385C17.6602 16.6791 17.3828 16.7806 17.0859 16.8431C16.7891 16.89 16.4961 16.9017 16.207 16.8783C15.918 16.8549 15.6328 16.7806 15.3516 16.6556C15.0703 16.5463 14.8164 16.3978 14.5898 16.2103C14.3633 16.0228 14.1719 15.8041 14.0156 15.5541ZM17.7422 14.7338C17.8203 14.6088 17.8828 14.472 17.9297 14.3236C17.9766 14.1752 18 14.0306 18 13.89C18 13.6869 17.9609 13.4955 17.8828 13.3158C17.8047 13.1361 17.6953 12.976 17.5547 12.8353C17.4141 12.6947 17.2539 12.5853 17.0742 12.5072C16.8945 12.4291 16.7031 12.39 16.5 12.39C16.3594 12.39 16.2148 12.4135 16.0664 12.4603C15.918 12.5072 15.7812 12.5697 15.6562 12.6478C15.5469 12.726 15.4453 12.8236 15.3516 12.9408C15.2578 13.058 15.1797 13.1869 15.1172 13.3275C15.0547 13.4525 15.0156 13.5892 15 13.7377C14.9844 13.8861 14.9922 14.0306 15.0234 14.1713C15.0547 14.3275 15.1055 14.472 15.1758 14.6049C15.2461 14.7377 15.3359 14.851 15.4453 14.9447C15.5391 15.0541 15.6523 15.1439 15.7852 15.2142C15.918 15.2845 16.0625 15.3353 16.2188 15.3666C16.3594 15.3978 16.5039 15.4056 16.6523 15.39C16.8008 15.3744 16.9375 15.3353 17.0625 15.2728C17.2031 15.2103 17.332 15.1322 17.4492 15.0385C17.5664 14.9447 17.6641 14.8431 17.7422 14.7338Z" fill="#023363"/>
</svg>
