<svg width="25" height="26" viewBox="0 0 25 26" fill="none" xmlns="http://www.w3.org/2000/svg">
<path d="M3.94531 22.9447C4.08594 23.0853 4.24609 23.1947 4.42578 23.2728C4.60547 23.351 4.79688 23.39 5 23.39H12.5V21.89H5V3.89001H17V6.89001H18.5V3.89001C18.5 3.68689 18.4609 3.49548 18.3828 3.3158C18.3047 3.13611 18.1953 2.97595 18.0547 2.83533C17.9141 2.6947 17.7539 2.58533 17.5742 2.5072C17.3945 2.42908 17.2031 2.39001 17 2.39001H5C4.79688 2.39001 4.60547 2.42908 4.42578 2.5072C4.24609 2.58533 4.08594 2.6947 3.94531 2.83533C3.80469 2.97595 3.69531 3.13611 3.61719 3.3158C3.53906 3.49548 3.5 3.68689 3.5 3.89001V21.89C3.5 22.0931 3.53906 22.2845 3.61719 22.4642C3.69531 22.6439 3.80469 22.8041 3.94531 22.9447ZM14.75 6.89001H7.25V8.39001H14.75V6.89001ZM22.4609 12.2338C22.6328 12.5619 22.7656 12.9095 22.8594 13.2767C22.9531 13.6439 23 14.015 23 14.39C23 14.7025 22.9688 15.015 22.9062 15.3275C22.8438 15.64 22.7422 15.9369 22.6016 16.2181C22.4766 16.515 22.3203 16.7885 22.1328 17.0385C21.9453 17.2885 21.7344 17.5228 21.5 17.7416V23.39L18.5 21.9603L15.5 23.39V17.7416C15.2188 17.4916 14.9727 17.2103 14.7617 16.8978C14.5508 16.5853 14.3828 16.2494 14.2578 15.89C14.1328 15.5463 14.0547 15.1869 14.0234 14.8119C13.9922 14.4369 14 14.0619 14.0469 13.6869C14.1094 13.3119 14.2148 12.9525 14.3633 12.6088C14.5117 12.265 14.7031 11.9447 14.9375 11.6478C15.1562 11.351 15.4141 11.0853 15.7109 10.851C16.0078 10.6166 16.3281 10.4213 16.6719 10.265C17.0156 10.1088 17.3711 9.99939 17.7383 9.93689C18.1055 9.87439 18.4766 9.85876 18.8516 9.89001C19.2266 9.92126 19.5938 9.99939 19.9531 10.1244C20.3125 10.2494 20.6484 10.4135 20.9609 10.6166C21.2734 10.8197 21.5547 11.058 21.8047 11.3314C22.0547 11.6049 22.2734 11.9056 22.4609 12.2338ZM18.5 20.3197L20 21.0228V18.6322C19.5156 18.8041 19.0156 18.89 18.5 18.89C17.9844 18.89 17.4844 18.8041 17 18.6322V21.0228L18.5 20.3197ZM16.8359 16.8744C17.0859 17.0463 17.3516 17.1752 17.6328 17.2611C17.9141 17.347 18.2031 17.39 18.5 17.39C18.8906 17.39 19.2695 17.3119 19.6367 17.1556C20.0039 16.9994 20.3281 16.7806 20.6094 16.4994C20.8906 16.2181 21.1094 15.8939 21.2656 15.5267C21.4219 15.1595 21.5 14.7806 21.5 14.39C21.5 14.0931 21.457 13.8041 21.3711 13.5228C21.2852 13.2416 21.1562 12.976 20.9844 12.726C20.8281 12.476 20.6367 12.2572 20.4102 12.0697C20.1836 11.8822 19.9297 11.7338 19.6484 11.6244C19.3672 11.4994 19.082 11.4252 18.793 11.4017C18.5039 11.3783 18.2109 11.39 17.9141 11.4369C17.6172 11.4994 17.3398 11.601 17.082 11.7416C16.8242 11.8822 16.5859 12.0541 16.3672 12.2572C16.1641 12.476 15.9922 12.7142 15.8516 12.972C15.7109 13.2299 15.6094 13.5072 15.5469 13.8041C15.5 14.101 15.4883 14.3939 15.5117 14.683C15.5352 14.972 15.6094 15.2572 15.7344 15.5385C15.8438 15.8197 15.9922 16.0736 16.1797 16.3002C16.3672 16.5267 16.5859 16.7181 16.8359 16.8744ZM7.25 11.39H12.5V12.89H7.25V11.39Z" fill="#023363"/>
</svg>
