<svg width="161" height="41" viewBox="0 0 161 41" fill="none" xmlns="http://www.w3.org/2000/svg">
<path d="M20.9843 30.5368C21.0343 30.4992 21.0466 30.4239 21.0213 30.3616C17.573 22.9499 13.2712 15.9662 8.20317 9.55222C8.20317 9.55222 4.17638 13.3785 4.46452 17.2177C4.53189 18.1029 4.7731 18.966 5.17436 19.7579C5.57561 20.5497 6.12904 21.2547 6.80299 21.8324C10.3172 25.259 18.8211 29.5862 20.7968 30.5738C20.8283 30.5866 20.8628 30.59 20.8961 30.5834C20.9294 30.5768 20.9601 30.5606 20.9843 30.5368ZM19.671 33.4625C19.6568 33.4245 19.6309 33.3921 19.5971 33.3697C19.5633 33.3474 19.5233 33.3362 19.4828 33.3379L5.32679 33.8252C6.86525 36.564 9.45348 38.6903 12.1424 38.0395C14.0059 37.5768 18.2079 34.6382 19.5957 33.6377C19.7087 33.5508 19.671 33.4755 19.671 33.4625ZM19.8839 32.1998C19.9585 32.0869 19.8332 31.987 19.8332 31.987C13.6186 27.785 1.5628 21.3321 1.5628 21.3321C1.16317 22.5569 1.05134 23.8573 1.23602 25.1323C1.42069 26.4073 1.8969 27.6225 2.62762 28.6836C3.35834 29.7446 4.32389 30.6228 5.44922 31.25C6.57456 31.8772 7.82936 32.2364 9.11611 32.2997C9.32896 32.3374 17.5324 32.2997 19.7333 32.2874C19.793 32.2789 19.847 32.2475 19.8839 32.1998ZM20.8214 3.43675C20.209 3.48742 18.5452 3.87476 18.5452 3.87476C14.7936 4.83765 13.906 8.25123 13.906 8.25123C13.2182 10.3899 13.9183 12.7537 13.9183 12.7537C15.1693 18.3066 21.3217 27.4476 22.6473 29.3611C22.7342 29.461 22.8095 29.4234 22.8095 29.4234C22.8848 29.3987 22.9471 29.3365 22.9471 29.2481C24.9988 8.83982 20.8214 3.43675 20.8214 3.43675ZM25.5114 29.3987C25.586 29.4234 25.6736 29.3987 25.7112 29.3234C27.0745 27.36 33.19 18.2682 34.4403 12.7414C34.4403 12.7414 35.115 10.0648 34.4649 8.23892C34.4649 8.23892 33.5396 4.77539 29.788 3.86245C29.788 3.86245 28.7121 3.58733 27.5617 3.42444C27.5617 3.42444 23.3605 8.82679 25.4115 29.2358C25.3985 29.3111 25.4484 29.3734 25.5114 29.3987ZM28.8627 33.3502C28.8294 33.3569 28.7977 33.3702 28.7697 33.3895C28.7417 33.4088 28.7179 33.4336 28.6998 33.4625C28.6875 33.5377 28.6998 33.6 28.7505 33.6507C30.1007 34.6259 34.2151 37.5023 36.1909 38.0525C36.1909 38.0525 39.8549 39.3028 43.031 33.8382L28.8627 33.3502ZM46.8081 21.3075C46.8081 21.3075 34.7776 27.7727 28.55 31.9747C28.4877 32.0246 28.45 32.0999 28.4747 32.1745C28.4747 32.1745 28.5376 32.2874 28.6252 32.2874C30.8508 32.2874 39.2794 32.2997 39.5045 32.2621C40.3417 32.2013 41.1644 32.0115 41.9436 31.6996C41.9436 31.6996 44.9445 30.749 46.4953 27.3347C46.4953 27.3347 47.8832 24.5589 46.8081 21.3075ZM27.4126 30.5368C27.4391 30.557 27.4709 30.5689 27.5041 30.5711C27.5373 30.5733 27.5705 30.5657 27.5994 30.5491C29.6258 29.5356 38.0667 25.2467 41.5556 21.8324C41.5556 21.8324 43.7695 20.0572 43.8817 17.1931C44.1322 13.2286 40.1424 9.55222 40.1424 9.55222C40.1424 9.55222 32.765 18.4934 27.3496 30.3117C27.341 30.3513 27.3421 30.3925 27.353 30.4316C27.3638 30.4707 27.384 30.5066 27.4119 30.5361L27.4126 30.5368Z" fill="#101011"/>
<path d="M87.4937 11.9211H91.0448V21.8005C91.0448 26.8155 88.2814 29.6919 83.4669 29.6919C78.7024 29.6919 75.9635 26.8655 75.9635 21.9381V11.9334H79.5147V21.8251C79.5147 24.7515 80.9532 26.3153 83.5168 26.3153C86.0805 26.3153 87.4937 24.7891 87.4937 21.9504V11.9211ZM67.4843 18.9741H59.456V11.9211H55.9042V29.4291H59.456V22.3131H67.4719V29.4291H71.0238V11.9211H67.4719V18.9741H67.4843ZM156.424 11.9211V29.4038H159.926V11.9211H156.424ZM142.48 21.8881H148.946V18.699H142.48V15.1102H151.859V11.9334H138.979V29.4161H152.197V26.2277H142.48V21.8881ZM128.549 23.9515L124.572 11.9088H121.671L117.695 23.9515L113.83 11.9211H110.054L116.156 29.4161H119.095L123.072 17.9236L127.048 29.4161H130.012L136.103 11.9211H132.413L128.549 23.9515ZM103.738 12.021L111.379 29.4161H107.652L106.077 25.7774H98.0609L97.948 26.0271L96.4725 29.4161H92.8461L100.562 11.9211H103.663L103.738 12.021ZM104.588 22.2002L102.062 16.3359L99.5487 22.2002L99.3735 22.6005H104.751L104.588 22.2002Z" fill="#101011"/>
</svg>
