<svg width="161" height="41" viewBox="0 0 161 41" fill="none" xmlns="http://www.w3.org/2000/svg">
<path fill-rule="evenodd" clip-rule="evenodd" d="M153.309 20.0252H141.625C141.77 18.5618 142.803 17.0977 144.669 17.0977H158.446V14.2845H144.037C138.297 14.2845 135.941 18.6485 135.941 22.8384H152.018C152.562 22.8384 153.854 22.9533 153.854 24.2731C153.854 25.5941 152.735 25.709 150.812 25.7665H134.047V14.2851H129.11V25.7665H119.695C116.852 25.7665 116.538 23.6712 116.538 22.5524V14.2845H107.552L100.232 19.1643L93.63 14.2845H74.3702C68.6295 14.2845 65.1845 18.2746 64.6969 21.7477H68.667C67.0793 22.8179 65.9552 24.2678 65.3445 25.7612L54.134 25.7665C51.2921 25.7665 50.9762 23.6712 50.9762 22.5524V14.2845H46.0385V22.1216C46.0385 27.5182 49.8275 28.5802 51.6648 28.5802H91.1338L98.5108 23.6425L105.2 28.5802H112.979L102.617 20.9442L111.141 15.2317V22.7815C111.141 27.6601 115.907 28.5802 117.227 28.5802H153.252C155.032 28.5802 159.941 28.3499 159.941 24.446C159.941 20.5427 156.322 20.0252 153.308 20.0252H153.309ZM90.3315 25.7665H71.7586C71.9016 24.3024 73.5092 22.8384 75.3753 22.8384H86.3409V20.0252H71.3566C71.4996 18.5618 73.1072 17.0977 74.9733 17.0977H87.489V15.4608L96.1583 21.8907L90.3315 25.7665ZM20.1911 34.8659C26.6738 34.8659 32.4232 32.6037 35.9872 29.1159L32.7755 29.1311C29.7396 31.6841 25.3012 33.2911 20.2708 33.2911C10.8865 33.2911 3.56051 27.6999 3.56051 20.8006C3.56051 12.8434 10.8865 8.30945 20.2708 8.30945C20.8675 8.31121 21.3445 8.58608 20.987 9.10418C19.0371 11.4514 13.4852 19.0054 12.473 20.6423C10.4751 23.8687 10.5231 27.8424 15.4169 28.1207H35.9977C37.0492 28.1207 37.3164 27.6284 37.6956 27.1138C39.0522 25.2892 39.7804 23.0737 39.7709 20.8C39.768 14.8706 35.5957 10.427 29.4559 8.24088L28.5059 9.66037C33.6071 11.5429 36.9806 15.3459 36.9806 20.8C36.9806 21.7471 36.8417 22.6696 36.5791 23.5558C36.3505 24.3259 35.9051 24.977 35.0612 24.977H18.6333C16.5293 24.977 17.3428 22.8062 18.1217 21.7547C19.2522 19.7286 25.4424 11.2914 26.9328 9.71956C27.3126 9.14286 28.3775 7.94902 26.9094 7.49129C24.8153 6.99488 22.5519 6.73407 20.1911 6.73407C9.37736 6.73407 0.616627 12.2866 0.610766 20.8C0.605491 29.3937 9.37677 34.8659 20.1911 34.8659Z" fill="#101011"/>
</svg>
