<svg width="117" height="41" viewBox="0 0 117 41" fill="none" xmlns="http://www.w3.org/2000/svg">
<path d="M104.192 20.12L109.696 34.966C108.074 34.7302 106.453 34.4344 104.802 34.1677L101.701 25.9647L98.5154 33.4911C96.9521 33.2244 95.4155 33.1361 93.8522 32.9286L99.442 19.9434L94.3722 6.63397H99.0654L101.904 14.0703L104.945 6.63397H109.695L104.192 20.12ZM90.6656 6.63397H86.4074V32.3686C87.7982 32.4578 89.2457 32.5161 90.6656 32.6936V6.63397ZM82.7283 32.0736C78.8476 31.8078 74.9652 31.5728 70.997 31.4828V6.63397H75.3419V27.293C77.8335 27.3514 80.3242 27.5572 82.7283 27.6755V32.0736ZM66.3613 16.6985V21.125H60.4231V31.1887H56.1374V6.63397H68.3038V11.0604H60.424V16.6985H66.3613ZM48.8368 11.0604V31.4245C47.3869 31.4245 45.9111 31.4245 44.4911 31.4828V11.0604H40.0004V6.63397H53.3542V11.0604H48.8368ZM35.3089 21.36C33.3973 21.36 31.1373 21.36 29.5149 21.45V28.0305C32.0648 27.853 34.6131 27.6472 37.1913 27.558V31.8078L25.17 32.7828V6.63397H37.1905V11.0604H29.5149V17.0227C31.1957 17.0227 33.7731 16.9335 35.308 16.9335V21.3608L35.3089 21.36ZM11.2354 18.8809V34.3452C9.75385 34.5175 8.27654 34.7245 6.80469 34.966V6.63397H10.9471L16.5952 22.7191V6.63397H20.9409V33.1361C19.4052 33.4027 17.841 33.4911 16.1903 33.7261L11.2354 18.8809Z" fill="#101011"/>
</svg>
