<?xml version="1.0" encoding="UTF-8" standalone="no"?>
<!-- Created with Inkscape (http://www.inkscape.org/) -->

<svg
   version="1.1"
   id="svg2"
   width="2560"
   height="1440"
   viewBox="0 0 2560 1440"
   sodipodi:docname="Online bozor.ai"
   xmlns:inkscape="http://www.inkscape.org/namespaces/inkscape"
   xmlns:sodipodi="http://sodipodi.sourceforge.net/DTD/sodipodi-0.dtd"
   xmlns="http://www.w3.org/2000/svg"
   xmlns:svg="http://www.w3.org/2000/svg">
  <defs
     id="defs6">
    <clipPath
       clipPathUnits="userSpaceOnUse"
       id="clipPath16">
      <path
         d="M 0,1080 H 1920 V 0 H 0 Z"
         id="path14" />
    </clipPath>
    <clipPath
       clipPathUnits="userSpaceOnUse"
       id="clipPath72">
      <path
         d="M 24,732.483 H 408.967 V 347.517 H 24 Z"
         id="path70" />
    </clipPath>
    <clipPath
       clipPathUnits="userSpaceOnUse"
       id="clipPath76">
      <path
         d="M 24,732.483 H 408.967 V 347.517 H 24 Z"
         id="path74" />
    </clipPath>
    <mask
       maskUnits="userSpaceOnUse"
       x="0"
       y="0"
       width="1"
       height="1"
       id="mask78">
      <g
         id="g96">
        <g
           clip-path="url(#clipPath72)"
           id="g94">
          <path
             d="M 24,732.483 H 408.967 V 347.516 H 24 Z"
             style="fill:#000000;fill-opacity:1;fill-rule:nonzero;stroke:none"
             id="path80" />
          <g
             id="g92">
            <g
               id="g82" />
            <g
               id="g90">
              <g
                 clip-path="url(#clipPath76)"
                 id="g88">
                <g
                   transform="translate(298.9766,732.4834)"
                   id="g86">
                  <path
                     d="m 0,0 h -164.986 c -60.746,0 -109.991,-49.245 -109.991,-109.991 v -164.986 c 0,-60.745 49.245,-109.99 109.991,-109.99 H 0 c 60.745,0 109.99,49.245 109.99,109.99 v 164.986 C 109.99,-49.245 60.745,0 0,0"
                     style="fill:#ffffff;fill-opacity:1;fill-rule:nonzero;stroke:none"
                     id="path84" />
                </g>
              </g>
            </g>
          </g>
        </g>
      </g>
    </mask>
    <clipPath
       clipPathUnits="userSpaceOnUse"
       id="clipPath104">
      <path
         d="M 24,732.483 H 408.967 V 347.517 H 24 Z"
         id="path102" />
    </clipPath>
  </defs>
  <sodipodi:namedview
     id="namedview4"
     pagecolor="#ffffff"
     bordercolor="#000000"
     borderopacity="0.25"
     inkscape:showpageshadow="2"
     inkscape:pageopacity="0.0"
     inkscape:pagecheckerboard="0"
     inkscape:deskcolor="#d1d1d1" />
  <g
     id="g8"
     inkscape:groupmode="layer"
     inkscape:label="Online bozor"
     transform="matrix(1.3333333,0,0,-1.3333333,0,1440)">
    <g
       id="g10">
      <g
         id="g12"
         clip-path="url(#clipPath16)">
        <g
           id="g18"
           transform="translate(564.2434,616.4185)">
          <path
             d="m 0,0 c 28.569,0 34.472,-13.695 34.472,-55.959 0,-41.792 -5.903,-55.487 -34.472,-55.487 -28.335,0 -34.472,13.695 -34.472,55.487 C -34.472,-13.695 -28.335,0 0,0 m 0,38.014 c -61.39,0 -78.626,-21.486 -78.626,-93.973 0,-72.015 17.236,-93.5 78.626,-93.5 61.388,0 78.861,21.485 78.861,93.5 0,72.487 -17.473,93.973 -78.861,93.973"
             style="fill:#5c6ac4;fill-opacity:1;fill-rule:nonzero;stroke:none"
             id="path20" />
        </g>
        <g
           id="g22"
           transform="translate(729.2816,603.196)">
          <path
             d="m 0,0 c -21.016,0 -45.808,-0.708 -60.445,-4.25 -2.125,-0.472 -3.307,-0.708 -3.307,-3.542 v -123.487 c 0,-2.596 0.945,-3.778 3.307,-3.778 h 34.708 c 2.362,0 3.541,1.182 3.541,3.778 v 95.862 h 15.82 c 21.014,0 23.138,-1.889 23.138,-34.709 v -61.153 c 0,-2.596 0.945,-3.778 3.307,-3.778 h 34.237 c 2.359,0 3.541,1.182 3.541,3.778 v 73.904 C 57.847,-10.153 46.75,0 0,0"
             style="fill:#5c6ac4;fill-opacity:1;fill-rule:nonzero;stroke:none"
             id="path24" />
        </g>
        <g
           id="g26"
           transform="translate(815.2651,653.0161)">
          <path
             d="m 0,0 c -2.362,0 -3.541,-1.417 -3.541,-3.778 v -177.321 c 0,-2.596 1.179,-3.778 3.541,-3.778 h 34 c 2.362,0 3.541,1.182 3.541,3.778 V -3.778 C 37.541,-1.417 36.362,0 34,0 Z"
             style="fill:#5c6ac4;fill-opacity:1;fill-rule:nonzero;stroke:none"
             id="path28" />
        </g>
        <g
           id="g30"
           transform="translate(881.9015,602.0156)">
          <path
             d="m 0,0 c -2.361,0 -3.541,-1.417 -3.541,-3.778 v -126.321 c 0,-2.596 1.18,-3.778 3.541,-3.778 h 34 c 2.362,0 3.544,1.182 3.544,3.778 V -3.778 C 37.544,-1.417 36.362,0 34,0 Z m 17.236,57.848 c -15.346,0 -24.083,-8.028 -24.083,-21.487 0,-13.694 8.737,-21.722 24.083,-21.722 14.877,0 23.612,8.028 23.612,21.722 0,13.459 -8.735,21.487 -23.612,21.487"
             style="fill:#5c6ac4;fill-opacity:1;fill-rule:nonzero;stroke:none"
             id="path32" />
        </g>
        <g
           id="g34"
           transform="translate(1008.5119,603.196)">
          <path
             d="m 0,0 c -21.014,0 -45.805,-0.708 -60.445,-4.25 -2.125,-0.472 -3.305,-0.708 -3.305,-3.542 v -123.487 c 0,-2.596 0.945,-3.778 3.305,-3.778 h 34.708 c 2.362,0 3.544,1.182 3.544,3.778 v 95.862 h 15.819 c 21.014,0 23.138,-1.889 23.138,-34.709 v -61.153 c 0,-2.596 0.946,-3.778 3.307,-3.778 h 34.235 c 2.361,0 3.543,1.182 3.543,3.778 v 73.904 C 57.849,-10.153 46.75,0 0,0"
             style="fill:#5c6ac4;fill-opacity:1;fill-rule:nonzero;stroke:none"
             id="path36" />
        </g>
        <g
           id="g38"
           transform="translate(1149.0382,567.7789)">
          <path
             d="M 0,0 C 13.695,0 19.363,-4.722 19.363,-20.778 H -20.306 C -20.306,-4.722 -13.93,0 0,0 m 0,35.417 c -49.346,0 -62.099,-13.458 -62.099,-68.237 0,-54.542 12.753,-68 62.099,-68 16.293,0 34.945,0.943 48.167,3.778 2.124,0.472 3.306,1.18 3.306,4.013 v 24.083 c 0,2.361 -1.182,3.543 -3.541,3.543 H 4.486 c -18.416,0 -24.32,2.125 -24.555,19.597 h 73.667 c 5.431,0 7.084,1.417 7.084,6.375 v 7.32 C 60.682,21.959 48.64,35.417 0,35.417"
             style="fill:#5c6ac4;fill-opacity:1;fill-rule:nonzero;stroke:none"
             id="path40" />
        </g>
        <g
           id="g42"
           transform="translate(1305.0953,545.5844)">
          <path
             d="m 0,0 c 18.181,0 25.971,-5.194 25.971,-21.014 0,-14.875 -7.319,-19.598 -26.208,-19.598 H -29.278 V 0 Z m -5.431,70.834 c 19.834,0 27.39,-4.959 27.39,-20.542 0,-15.819 -7.556,-19.833 -29.515,-19.833 h -21.722 v 40.375 z m 4.723,38.014 c -22.433,0 -45.571,-0.944 -68.709,-2.833 -2.833,-0.236 -3.544,-0.945 -3.544,-3.306 V -72.486 c 0,-2.361 0.711,-3.069 3.544,-3.306 23.138,-1.89 50.999,-2.833 73.195,-2.833 47.93,0 66.582,12.984 66.582,51 0,27.389 -8.264,39.903 -33.29,42.264 v 0.708 c 21.485,3.542 29.278,15.112 29.278,42.265 0,37.542 -18.655,51.236 -67.056,51.236"
             style="fill:#b8c2d8;fill-opacity:1;fill-rule:nonzero;stroke:none"
             id="path44" />
        </g>
        <g
           id="g46"
           transform="translate(1455.4958,567.7789)">
          <path
             d="m 0,0 c 17.944,0 21.485,-6.611 21.485,-32.82 0,-25.972 -3.541,-32.583 -21.485,-32.583 -17.946,0 -21.487,6.611 -21.487,32.583 C -21.487,-6.611 -17.946,0 0,0 m 0,35.417 c -50.765,0 -62.807,-13.458 -62.807,-68.237 0,-54.542 12.042,-68 62.807,-68 50.763,0 62.804,13.458 62.804,68 0,54.779 -12.041,68.237 -62.804,68.237"
             style="fill:#b8c2d8;fill-opacity:1;fill-rule:nonzero;stroke:none"
             id="path48" />
        </g>
        <g
           id="g50"
           transform="translate(1540.6019,602.0156)">
          <path
             d="m 0,0 c -2.835,0 -4.251,-1.181 -4.251,-3.778 v -27.153 c 0,-2.361 1.416,-3.542 4.251,-3.542 H 50.528 L -4.96,-105.542 c -1.416,-1.653 -1.653,-2.835 -1.653,-4.486 v -20.071 c 0,-2.596 1.419,-3.778 4.015,-3.778 h 108.849 c 2.596,0 4.012,1.182 4.012,3.778 v 27.861 c 0,2.362 -1.416,3.778 -4.012,3.778 H 52.89 l 52.179,68.946 c 1.182,1.416 1.89,2.597 1.89,4.486 v 21.25 c 0,2.597 -1.417,3.778 -4.252,3.778 z"
             style="fill:#b8c2d8;fill-opacity:1;fill-rule:nonzero;stroke:none"
             id="path52" />
        </g>
        <g
           id="g54"
           transform="translate(1728.9613,567.7789)">
          <path
             d="m 0,0 c 17.946,0 21.487,-6.611 21.487,-32.82 0,-25.972 -3.541,-32.583 -21.487,-32.583 -17.944,0 -21.485,6.611 -21.485,32.583 C -21.485,-6.611 -17.944,0 0,0 m 0,35.417 c -50.763,0 -62.804,-13.458 -62.804,-68.237 0,-54.542 12.041,-68 62.804,-68 50.765,0 62.807,13.458 62.807,68 0,54.779 -12.042,68.237 -62.807,68.237"
             style="fill:#b8c2d8;fill-opacity:1;fill-rule:nonzero;stroke:none"
             id="path56" />
        </g>
        <g
           id="g58"
           transform="translate(1858.2216,603.196)">
          <path
             d="m 0,0 c -25.265,0 -45.334,-4.722 -45.334,-36.125 v -95.154 c 0,-2.596 1.18,-3.778 3.541,-3.778 h 34.237 c 2.362,0 3.542,1.182 3.542,3.778 v 84.056 c 0,10.153 4.251,11.806 14.403,11.806 h 23.375 c 2.598,0 4.014,1.181 4.014,3.542 v 24.083 c 0,3.306 -1.181,4.486 -4.014,4.959 C 23.847,-0.708 7.319,0 0,0"
             style="fill:#b8c2d8;fill-opacity:1;fill-rule:nonzero;stroke:none"
             id="path60" />
        </g>
        <g
           id="g62"
           transform="translate(297.1564,732.4813)">
          <path
             d="m 0,0 h -163.887 c -60.341,0 -109.257,-49.139 -109.257,-109.754 v -164.632 c 0,-60.614 48.916,-109.753 109.257,-109.753 H 0 c 60.342,0 109.257,49.139 109.257,109.753 v 164.632 C 109.257,-49.139 60.342,0 0,0"
             style="fill:#5b69c3;fill-opacity:1;fill-rule:nonzero;stroke:none"
             id="path64" />
        </g>
        <g
           id="g66">
          <g
             id="g68" />
          <g
             id="g98"
             mask="url(#mask78)">
            <g
               id="g100" />
            <g
               id="g110">
              <g
                 clip-path="url(#clipPath104)"
                 id="g108">
                <path
                   d="M 408.967,732.483 H 24 V 347.516 h 384.967 z"
                   style="fill:#5b69c3;fill-opacity:1;fill-rule:nonzero;stroke:none"
                   id="path106" />
              </g>
            </g>
          </g>
        </g>
        <g
           id="g112"
           transform="translate(162.0408,573.869)">
          <path
             d="m 0,0 c 0,-2.499 2.039,-4.549 4.524,-4.549 h 18.162 c 2.485,0 4.524,2.05 4.524,4.549 v 18.26 c 0,2.499 -2.039,4.549 -4.524,4.549 H 4.524 C 2.039,22.809 0,20.759 0,18.26 Z m 86.282,-4.549 c -2.485,0 -4.524,2.05 -4.524,4.549 v 18.26 c 0,2.499 2.039,4.549 4.524,4.549 h 18.162 c 2.486,0 4.524,-2.05 4.524,-4.549 V 0 c 0,-2.499 -2.038,-4.549 -4.524,-4.549 z M 54.42,28.127 c -10.896,0 -20.901,-0.192 -29.95,-0.576 0,0 13.191,31.394 18.607,34.278 2.549,3.203 6.691,5.382 11.343,5.382 3.887,0 7.392,-1.474 9.877,-3.781 0.51,-0.192 7.711,-3.331 20.328,-35.879 -9.112,0.384 -19.181,0.576 -30.268,0.576 z M 168.232,13.903 c -5.544,2.627 -16.823,6.6 -37.981,9.675 -6.372,0.961 -13.637,1.794 -21.984,2.499 C 91.381,69.838 80.165,76.245 80.165,76.245 73.792,82.716 64.616,86.752 54.357,86.752 42.185,86.752 31.48,81.05 25.235,72.336 18.926,68.364 1.848,28.191 1.02,26.141 -7.583,25.308 -15.039,24.411 -21.602,23.45 -42.695,20.31 -53.91,16.274 -59.454,13.519 c -2.868,-1.41 -4.525,-4.293 -4.079,-7.304 1.721,-11.277 6.245,-40.814 8.731,-51.898 1.338,-6.087 4.396,-15.89 6.245,-21.912 0.127,-0.321 0.254,-0.641 0.382,-0.961 11.661,-42.03 53.209,-73.105 102.595,-73.105 49.386,0 90.998,31.138 102.596,73.296 0.191,0.386 0.318,0.77 0.509,1.155 1.848,5.83 4.843,15.376 6.246,21.399 2.548,11.148 6.944,40.877 8.665,52.218 0.447,3.011 -1.209,5.895 -4.141,7.304 z"
             style="fill:#ffffff;fill-opacity:1;fill-rule:evenodd;stroke:none"
             id="path114" />
        </g>
      </g>
    </g>
  </g>
</svg>
