<svg width="21" height="20" viewBox="0 0 21 20" fill="none" xmlns="http://www.w3.org/2000/svg">
<path d="M1.5 16.8H12V18.3H1.5C1.29688 18.3 1.10547 18.261 0.925781 18.1829C0.746094 18.1047 0.585938 17.9954 0.445312 17.8547C0.304688 17.7141 0.195312 17.554 0.117188 17.3743C0.0390625 17.1946 0 17.0032 0 16.8V1.80005C0 1.59692 0.0390625 1.40552 0.117188 1.22583C0.195312 1.04614 0.304688 0.885986 0.445312 0.745361C0.585938 0.604736 0.746094 0.495361 0.925781 0.417236C1.10547 0.339111 1.29688 0.300049 1.5 0.300049H19.5C19.7031 0.300049 19.8945 0.339111 20.0742 0.417236C20.2539 0.495361 20.4141 0.604736 20.5547 0.745361C20.6953 0.885986 20.8047 1.04614 20.8828 1.22583C20.9609 1.40552 21 1.59692 21 1.80005V9.30005H19.5V1.80005H1.5V16.8ZM10.5 7.05005C10.5 6.75317 10.457 6.46411 10.3711 6.18286C10.2852 5.90161 10.1562 5.63599 9.98438 5.38599C9.82812 5.13599 9.63672 4.91724 9.41016 4.72974C9.18359 4.54224 8.92969 4.3938 8.64844 4.28442C8.36719 4.15942 8.08203 4.08521 7.79297 4.06177C7.50391 4.03833 7.21094 4.05005 6.91406 4.09692C6.61719 4.15942 6.33984 4.26099 6.08203 4.40161C5.82422 4.54224 5.58594 4.71411 5.36719 4.91724C5.16406 5.13599 4.99219 5.37427 4.85156 5.63208C4.71094 5.88989 4.60938 6.16724 4.54688 6.46411C4.5 6.76099 4.48828 7.05396 4.51172 7.34302C4.53516 7.63208 4.60938 7.91724 4.73438 8.19849C4.84375 8.47974 4.99219 8.73364 5.17969 8.96021C5.36719 9.18677 5.58594 9.37817 5.83594 9.53442C6.08594 9.7063 6.35156 9.83521 6.63281 9.92114C6.91406 10.0071 7.20312 10.05 7.5 10.05C7.89062 10.05 8.27344 9.97583 8.64844 9.82739C9.02344 9.67896 9.35156 9.46411 9.63281 9.18286C9.91406 8.90161 10.1289 8.57349 10.2773 8.19849C10.4258 7.82349 10.5 7.44067 10.5 7.05005ZM9 7.05005C9 7.19067 8.97656 7.33521 8.92969 7.48364C8.88281 7.63208 8.82031 7.7688 8.74219 7.8938C8.66406 8.00317 8.56641 8.10474 8.44922 8.19849C8.33203 8.29224 8.20312 8.37036 8.0625 8.43286C7.9375 8.49536 7.80078 8.53442 7.65234 8.55005C7.50391 8.56567 7.35938 8.55786 7.21875 8.52661C7.0625 8.49536 6.91797 8.44458 6.78516 8.37427C6.65234 8.30396 6.53906 8.21411 6.44531 8.10474C6.33594 8.01099 6.24609 7.89771 6.17578 7.76489C6.10547 7.63208 6.05469 7.48755 6.02344 7.3313C5.99219 7.19067 5.98438 7.04614 6 6.89771C6.01562 6.74927 6.05469 6.61255 6.11719 6.48755C6.17969 6.34692 6.25781 6.21802 6.35156 6.10083C6.44531 5.98364 6.54688 5.88599 6.65625 5.80786C6.78125 5.72974 6.91797 5.66724 7.06641 5.62036C7.21484 5.57349 7.35938 5.55005 7.5 5.55005C7.70312 5.55005 7.89453 5.58911 8.07422 5.66724C8.25391 5.74536 8.41406 5.85474 8.55469 5.99536C8.69531 6.13599 8.80469 6.29614 8.88281 6.47583C8.96094 6.65552 9 6.84692 9 7.05005ZM18 4.80005H12.75V6.30005H18V4.80005ZM12.75 7.80005H15.75V9.30005H12.75V7.80005ZM19.9453 14.9954L21 16.05L17.25 19.8L13.5 16.05L14.5547 14.9954L16.5 16.9407V10.8H18V16.9407L19.9453 14.9954ZM9.75 10.8H5.25C4.95312 10.8 4.66797 10.8586 4.39453 10.9758C4.12109 11.093 3.875 11.2532 3.65625 11.4563C3.45312 11.675 3.29297 11.9211 3.17578 12.1946C3.05859 12.468 3 12.7532 3 13.05V14.55H4.5V13.05C4.5 12.9563 4.51953 12.8625 4.55859 12.7688C4.59766 12.675 4.64844 12.5891 4.71094 12.511C4.78906 12.4485 4.875 12.3977 4.96875 12.3586C5.0625 12.3196 5.15625 12.3 5.25 12.3H9.75C9.84375 12.3 9.9375 12.3196 10.0312 12.3586C10.125 12.3977 10.2109 12.4485 10.2891 12.511C10.3516 12.5891 10.4023 12.675 10.4414 12.7688C10.4805 12.8625 10.5 12.9563 10.5 13.05V14.55H12V13.05C12 12.7532 11.9414 12.468 11.8242 12.1946C11.707 11.9211 11.5469 11.675 11.3438 11.4563C11.125 11.2532 10.8789 11.093 10.6055 10.9758C10.332 10.8586 10.0469 10.8 9.75 10.8Z" fill="#023363"/>
</svg>
