<?xml version="1.0" encoding="UTF-8" standalone="no"?>
<!-- Created with Inkscape (http://www.inkscape.org/) -->

<svg
   version="1.1"
   id="svg2"
   width="2560"
   height="1440"
   viewBox="0 0 2560 1440"
   sodipodi:docname="RealSoft_logo.ai"
   xmlns:inkscape="http://www.inkscape.org/namespaces/inkscape"
   xmlns:sodipodi="http://sodipodi.sourceforge.net/DTD/sodipodi-0.dtd"
   xmlns="http://www.w3.org/2000/svg"
   xmlns:svg="http://www.w3.org/2000/svg">
  <defs
     id="defs6">
    <clipPath
       clipPathUnits="userSpaceOnUse"
       id="clipPath24">
      <path
         d="M 0,1080 H 1920 V 0 H 0 Z"
         id="path22" />
    </clipPath>
    <clipPath
       clipPathUnits="userSpaceOnUse"
       id="clipPath48">
      <path
         d="M 0,1080 H 1920 V 0 H 0 Z"
         id="path46" />
    </clipPath>
    <clipPath
       clipPathUnits="userSpaceOnUse"
       id="clipPath60">
      <path
         d="M 0,1080 H 1920 V 0 H 0 Z"
         id="path58" />
    </clipPath>
    <clipPath
       clipPathUnits="userSpaceOnUse"
       id="clipPath80">
      <path
         d="M 0,1080 H 1920 V 0 H 0 Z"
         id="path78" />
    </clipPath>
  </defs>
  <sodipodi:namedview
     id="namedview4"
     pagecolor="#ffffff"
     bordercolor="#000000"
     borderopacity="0.25"
     inkscape:showpageshadow="2"
     inkscape:pageopacity="0.0"
     inkscape:pagecheckerboard="0"
     inkscape:deskcolor="#d1d1d1" />
  <g
     id="g8"
     inkscape:groupmode="layer"
     inkscape:label="RealSoft_logo"
     transform="matrix(1.3333333,0,0,-1.3333333,0,1440)">
    <g
       id="g10"
       transform="translate(1143.1813,457.151)">
      <path
         d="m 0,0 -0.711,-0.564 h -43.824 l -253.175,315.297 -67.987,-84.77 -22.503,28.018 67.987,84.686 22.503,27.943 22.421,-27.943 z"
         style="fill:#0091ff;fill-opacity:1;fill-rule:nonzero;stroke:none"
         id="path12" />
    </g>
    <g
       id="g14"
       transform="translate(1347.8,456.5907)">
      <path
         d="m 0,0 h -44.849 l -309.563,385.422 -62.5,-77.89 -22.421,27.933 62.5,77.89 22.421,27.934 22.422,-28.018 z"
         style="fill:#0091ff;fill-opacity:1;fill-rule:nonzero;stroke:none"
         id="path16" />
    </g>
    <g
       id="g18">
      <g
         id="g20"
         clip-path="url(#clipPath24)">
        <g
           id="g26"
           transform="translate(320.5014,327.9343)">
          <path
             d="m 0,0 c 11.193,0 17.21,1.343 20.885,5.214 3.256,4.063 4.813,9.246 4.342,14.446 0.474,5.149 -1.086,10.281 -4.342,14.283 -3.675,3.86 -9.692,5.21 -20.885,5.21 H -74.172 V 0.003 Z m 2.844,-37.636 c -4.003,4.701 -9.062,8.374 -14.757,10.712 -5.695,2.34 -11.863,3.276 -17.99,2.733 h -44.269 v -34.445 h -30.573 V 63.344 H 3.007 c 20.549,0 33.414,-4.035 41.932,-11.928 7.344,-8.931 11.362,-20.162 11.362,-31.756 0,-11.593 -4.018,-22.824 -11.362,-31.755 -6.99,-6.093 -15.687,-9.851 -24.89,-10.753 7.67,-3.195 14.607,-7.941 20.383,-13.941 l 23.72,-21.847 H 25.895 Z"
             style="fill:#000000;fill-opacity:1;fill-rule:nonzero;stroke:none"
             id="path28" />
        </g>
      </g>
    </g>
    <g
       id="g30"
       transform="translate(551.775,269.2985)">
      <path
         d="M 0,0 H -142.667 V 121.98 H -0.502 V 97.792 H -112.094 V 74.097 h 75.176 v -23.19 h -75.176 V 24.191 L 0,24.191 Z"
         style="fill:#000000;fill-opacity:1;fill-rule:nonzero;stroke:none"
         id="path32" />
    </g>
    <g
       id="g34"
       transform="translate(628.0159,315.8388)">
      <path
         d="M 0,0 H 59.975 L 29.736,45.201 Z M 76.178,-24.365 H -16.035 L -30.57,-46.54 H -64.485 L 17.873,75.44 H 42.768 L 125.626,-46.54 H 91.044 Z"
         style="fill:#000000;fill-opacity:1;fill-rule:nonzero;stroke:none"
         id="path36" />
    </g>
    <g
       id="g38"
       transform="translate(908.3887,269.2985)">
      <path
         d="m 0,0 h -137.653 v 121.98 h 30.574 V 24.188 L 0,24.188 Z"
         style="fill:#000000;fill-opacity:1;fill-rule:nonzero;stroke:none"
         id="path40" />
    </g>
    <g
       id="g42">
      <g
         id="g44"
         clip-path="url(#clipPath48)">
        <g
           id="g50"
           transform="translate(1070.9807,367.5966)">
          <path
             d="m 0,0 h -101.899 c -6.151,0.837 -12.4,-0.468 -17.71,-3.704 -0.868,-0.874 -1.537,-1.93 -1.971,-3.089 -0.431,-1.158 -0.615,-2.395 -0.537,-3.628 0,-7.059 5.683,-9.578 16.203,-10.415 l 66.662,-5.21 c 21.382,-1.681 33.748,-4.541 41.763,-12.601 2.915,-3.076 5.177,-6.721 6.639,-10.709 1.466,-3.987 2.105,-8.234 1.88,-12.481 0.232,-4.466 -0.452,-8.932 -2.003,-13.124 -1.551,-4.189 -3.939,-8.016 -7.018,-11.242 -8.518,-8.562 -21.721,-12.095 -43.937,-12.095 h -102.07 v 23.695 h 106.246 c 13.53,0 19.209,3.694 19.209,11.423 0,6.885 -4.008,9.577 -16.196,10.582 l -61.813,4.705 c -17.709,1.349 -33.744,3.703 -44.104,12.775 -3.39,3.024 -6.085,6.755 -7.9,10.93 -1.818,4.176 -2.713,8.7 -2.621,13.258 -0.126,4.387 0.674,8.75 2.344,12.806 1.668,4.056 4.172,7.708 7.343,10.722 8.518,7.896 22.718,11.084 41.76,11.084 l 99.73,0 z"
             style="fill:#000000;fill-opacity:1;fill-rule:nonzero;stroke:none"
             id="path52" />
        </g>
      </g>
    </g>
    <g
       id="g54">
      <g
         id="g56"
         clip-path="url(#clipPath60)">
        <g
           id="g62"
           transform="translate(1205.35,293.9849)">
          <path
             d="m 0,0 c 22.718,0 35.747,1.517 43.937,7.907 6.683,7.93 10.353,17.996 10.353,28.397 0,10.4 -3.67,20.463 -10.353,28.393 -8.19,6.379 -21.225,7.896 -44.101,7.896 h -18.215 c -22.879,0 -35.921,-1.517 -44.101,-7.896 -6.69,-7.927 -10.363,-17.993 -10.363,-28.393 0,-10.405 3.673,-20.467 10.363,-28.397 C -54.3,1.521 -41.255,0 -18.543,0 Z m 2.839,99.309 c 33.584,0 55.797,-5.046 68.999,-18.659 C 81.276,67.813 86.367,52.267 86.367,36.297 86.367,20.327 81.276,4.78 71.838,-8.06 58.636,-21.669 36.423,-26.709 2.505,-26.709 h -23.887 c -33.581,0 -55.793,5.04 -68.999,18.649 -9.441,12.837 -14.535,28.387 -14.535,44.357 0,15.97 5.094,31.52 14.535,44.353 13.202,13.613 35.415,18.659 68.999,18.659 z"
             style="fill:#000000;fill-opacity:1;fill-rule:nonzero;stroke:none"
             id="path64" />
        </g>
      </g>
    </g>
    <g
       id="g66"
       transform="translate(1347.4208,269.2985)">
      <path
         d="m 0,0 h -30.574 v 121.98 h 140.5 V 97.792 H 0 V 74.097 H 73.509 V 50.907 L 0,50.907 Z"
         style="fill:#000000;fill-opacity:1;fill-rule:nonzero;stroke:none"
         id="path68" />
    </g>
    <g
       id="g70"
       transform="translate(1465.0853,391.2784)">
      <path
         d="M 0,0 H 160.214 V -24.188 H 95.397 V -121.98 H 64.824 v 97.789 H -0.003 Z"
         style="fill:#000000;fill-opacity:1;fill-rule:nonzero;stroke:none"
         id="path72" />
    </g>
    <g
       id="g74">
      <g
         id="g76"
         clip-path="url(#clipPath80)">
        <g
           id="g82"
           transform="translate(1656.2487,421.6299)">
          <path
             d="M 0,0 H 3.003 C 6.519,0 9.362,1.175 9.362,4.035 9.362,6.557 7.517,8.238 3.509,8.238 2.33,8.265 1.151,8.149 0,7.9 Z m -0.167,-15.642 h -6.356 v 27.58 c 3.475,0.615 6.998,0.895 10.528,0.841 3.3,0.27 6.608,-0.431 9.522,-2.016 C 14.395,10.018 15.089,9.089 15.55,8.04 16.015,6.991 16.237,5.853 16.203,4.705 16.083,3.161 15.461,1.698 14.436,0.543 13.411,-0.612 12.034,-1.391 10.524,-1.681 v -0.342 c 1.363,-0.557 2.549,-1.479 3.434,-2.661 0.881,-1.186 1.428,-2.594 1.578,-4.066 0.27,-2.396 0.947,-4.729 1.999,-6.892 h -6.847 c -1.056,2.118 -1.791,4.387 -2.173,6.728 -0.503,3.023 -2.173,4.373 -5.679,4.373 H -0.167 Z M -17.04,-1.175 c -0.088,-2.877 0.4,-5.741 1.436,-8.419 1.038,-2.683 2.603,-5.122 4.599,-7.179 1.995,-2.06 4.383,-3.69 7.024,-4.794 2.638,-1.107 5.471,-1.664 8.327,-1.64 2.809,0.01 5.587,0.591 8.17,1.702 2.583,1.113 4.916,2.737 6.864,4.776 1.948,2.04 3.468,4.452 4.473,7.094 1.004,2.641 1.472,5.456 1.373,8.285 0.13,2.867 -0.317,5.73 -1.312,8.419 -0.997,2.693 -2.525,5.15 -4.489,7.23 -1.968,2.081 -4.33,3.738 -6.95,4.876 -2.617,1.138 -5.436,1.729 -8.289,1.739 -2.853,0.014 -5.676,-0.557 -8.303,-1.671 -2.628,-1.117 -5.006,-2.753 -6.988,-4.817 -1.981,-2.064 -3.529,-4.51 -4.547,-7.193 -1.019,-2.682 -1.49,-5.542 -1.381,-8.408 z m 49.274,0 c 0.151,-5.642 -1.373,-11.201 -4.377,-15.964 -3.003,-4.763 -7.353,-8.518 -12.488,-10.776 -5.136,-2.262 -10.825,-2.928 -16.339,-1.917 -5.515,1.011 -10.603,3.659 -14.614,7.602 -4.011,3.94 -6.762,8.997 -7.903,14.522 -1.138,5.525 -0.615,11.265 1.507,16.489 2.122,5.221 5.743,9.69 10.4,12.827 4.658,3.14 10.142,4.807 15.745,4.79 3.649,0.072 7.278,-0.587 10.671,-1.941 3.393,-1.349 6.485,-3.368 9.095,-5.934 2.614,-2.567 4.692,-5.628 6.116,-9.011 1.425,-3.382 2.17,-7.014 2.187,-10.687"
             style="fill:#000000;fill-opacity:1;fill-rule:nonzero;stroke:none"
             id="path84" />
        </g>
      </g>
    </g>
    <g
       id="g86"
       transform="translate(927.1401,456.5839)">
      <path
         d="M 0,0 H -44.924 L -235.766,237.735 -426.685,0 h -45.008 l 213.42,265.669 22.431,27.933 22.493,-27.933 z"
         style="fill:#0091ff;fill-opacity:1;fill-rule:nonzero;stroke:none"
         id="path88" />
    </g>
  </g>
</svg>
