<?xml version="1.0" encoding="UTF-8" standalone="no"?>
<!-- Created with Inkscape (http://www.inkscape.org/) -->

<svg
   version="1.1"
   id="svg2"
   width="2560"
   height="1440"
   viewBox="0 0 2560 1440"
   sodipodi:docname="RealPay.ai"
   xmlns:inkscape="http://www.inkscape.org/namespaces/inkscape"
   xmlns:sodipodi="http://sodipodi.sourceforge.net/DTD/sodipodi-0.dtd"
   xmlns="http://www.w3.org/2000/svg"
   xmlns:svg="http://www.w3.org/2000/svg">
  <defs
     id="defs6">
    <clipPath
       clipPathUnits="userSpaceOnUse"
       id="clipPath16">
      <path
         d="M 0,1080 H 1920 V 0 H 0 Z"
         id="path14" />
    </clipPath>
  </defs>
  <sodipodi:namedview
     id="namedview4"
     pagecolor="#ffffff"
     bordercolor="#000000"
     borderopacity="0.25"
     inkscape:showpageshadow="2"
     inkscape:pageopacity="0.0"
     inkscape:pagecheckerboard="0"
     inkscape:deskcolor="#d1d1d1" />
  <g
     id="g8"
     inkscape:groupmode="layer"
     inkscape:label="RealPay"
     transform="matrix(1.3333333,0,0,-1.3333333,0,1440)">
    <g
       id="g10">
      <g
         id="g12"
         clip-path="url(#clipPath16)">
        <g
           id="g18"
           transform="translate(405.46,536.9244)">
          <path
             d="m 0,0 -134.399,-170.004 c -5.142,-6.49 -12.906,-10.284 -21.153,-10.284 h -164.507 l 88.767,112.3 80.638,102.043 c 5.145,6.488 12.908,10.282 21.155,10.282 H -21.155 C 1.504,44.337 14.119,17.896 0,0.025 Z"
             style="fill:#f8635e;fill-opacity:1;fill-rule:nonzero;stroke:none"
             id="path20" />
        </g>
        <g
           id="g22"
           transform="translate(23.4842,554.53)">
          <path
             d="m 0,0 134.399,170.005 c 5.143,6.488 12.906,10.283 21.155,10.283 H 320.085 L 231.318,67.987 150.678,-34.054 c -5.144,-6.488 -12.907,-10.284 -21.155,-10.284 H 21.154 c -22.658,0 -35.273,26.442 -21.154,44.314 z"
             style="fill:#f8635e;fill-opacity:1;fill-rule:nonzero;stroke:none"
             id="path24" />
        </g>
        <g
           id="g26"
           transform="translate(603.0504,561.4775)">
          <path
             d="m 0,0 h 0.776 c 16.425,0 29.405,4.529 38.913,13.612 9.51,9.083 14.266,20.59 14.266,34.52 0,10.258 -3.785,18.754 -11.329,25.462 C 35.055,80.302 26.2,83.656 16.037,83.656 h -55.506 c -2.523,0 -4.708,-1.763 -5.265,-4.26 L -60.721,6.586 c -0.754,-3.403 1.819,-6.611 5.263,-6.611 H 0.024 Z M 55.75,-138.912 H 17.03 c -2.255,0 -4.245,1.42 -5.045,3.524 l -33.745,91.197 c -0.776,2.131 -2.79,3.527 -5.048,3.527 h -40.028 c -2.523,0 -4.73,-1.789 -5.265,-4.285 l -19.285,-89.703 c -0.535,-2.498 -2.718,-4.285 -5.265,-4.285 h -34.715 c -3.445,0 -5.992,3.207 -5.265,6.611 l 55.119,252.362 c 0.533,2.498 2.742,4.26 5.265,4.26 H 24.237 c 21.104,0 39.348,-6.585 54.754,-19.732 15.38,-13.172 23.071,-30.53 23.071,-52.098 C 102.062,28.522 94.687,8.275 79.96,-8.3 66.619,-23.307 49.806,-32.831 29.501,-36.822 c -3.301,-0.66 -5.192,-4.186 -3.93,-7.345 l 35.128,-87.278 c 1.431,-3.575 -1.164,-7.467 -4.997,-7.467 z"
             style="fill:#3a302f;fill-opacity:1;fill-rule:nonzero;stroke:none"
             id="path28" />
        </g>
        <g
           id="g30"
           transform="translate(757.8004,533.4772)">
          <path
             d="m 0,0 h 96.409 c 2.959,0 5.386,2.399 5.386,5.362 v 0.146 c 0,12.878 -4.294,23.601 -12.906,32.17 C 80.276,46.222 68.026,50.507 52.136,50.507 37.53,50.507 24.697,45.513 13.611,35.524 4.513,27.322 -1.723,17.872 -5.118,7.198 -6.233,3.648 -3.711,0 -0.024,0 Z m 42.746,-115.629 c -29.475,0 -52.741,7.638 -69.795,22.891 -17.078,15.253 -25.619,36.037 -25.619,62.356 0,31.582 10.36,58.61 31.077,81.109 20.719,22.499 46.336,33.737 76.83,33.737 24.769,0 44.833,-7.688 60.215,-23.087 15.379,-15.399 23.07,-35.842 23.07,-61.377 0,-8.912 -0.85,-17.26 -2.522,-25.045 -0.535,-2.448 -2.742,-4.162 -5.241,-4.162 H -11.257 c 0,-0.27 -0.072,-1.25 -0.193,-2.964 -0.144,-1.714 -0.195,-2.961 -0.195,-3.745 0,-11.849 5.072,-22.424 15.261,-31.777 10.164,-9.352 24.235,-14.005 42.236,-14.005 18.001,0 32.725,4.063 45.341,12.169 2.766,1.786 6.428,0.686 7.763,-2.326 l 8.419,-18.755 c 1.067,-2.373 0.34,-5.238 -1.819,-6.707 -17.977,-12.217 -38.913,-18.312 -62.834,-18.312 z"
             style="fill:#3a302f;fill-opacity:1;fill-rule:nonzero;stroke:none"
             id="path32" />
        </g>
        <g
           id="g34"
           transform="translate(1028.1289,581.2172)">
          <path
             d="m 0,0 c -17.975,0 -32.92,-7.638 -44.782,-22.891 -11.864,-15.252 -17.784,-33.149 -17.784,-53.664 0,-15.253 4.296,-27.421 12.907,-36.504 8.612,-9.083 19.82,-13.613 33.624,-13.613 9.631,0 18.825,2.499 27.559,7.491 8.371,4.8 15.356,10.92 20.984,18.363 0.487,0.636 0.827,1.396 0.995,2.179 l 15.672,70.411 c 0.315,1.42 0.098,2.913 -0.68,4.113 -4.39,6.757 -10.575,12.364 -18.558,16.819 C 21.203,-2.424 11.233,0 0.024,0 Z m -6.258,36.699 c 13.294,0 25.473,-2.84 36.559,-8.495 7.496,-3.82 13.876,-8.643 19.165,-14.445 2.985,-3.281 8.371,-1.959 9.315,2.399 l 2.475,11.507 c 0.534,2.497 2.717,4.284 5.264,4.284 h 30.01 c 3.445,0 5.992,-3.207 5.265,-6.61 l -39.47,-179.748 c -0.559,-2.499 -2.742,-4.261 -5.264,-4.261 H 27.003 c -3.446,0 -5.993,3.207 -5.265,6.587 l 0.072,0.293 c 1.116,5.116 -4.804,8.594 -8.806,5.239 -13.44,-11.238 -28.87,-16.868 -46.264,-16.868 -21.907,0 -39.445,6.904 -52.594,20.712 -13.175,13.808 -19.748,33.076 -19.748,57.803 0,20.246 3.786,39.538 11.354,57.827 7.568,18.288 19.092,33.467 34.619,45.586 15.502,12.094 33.308,18.165 53.371,18.165 z"
             style="fill:#3a302f;fill-opacity:1;fill-rule:nonzero;stroke:none"
             id="path36" />
        </g>
        <g
           id="g38"
           transform="translate(1179.4379,422.5716)">
          <path
             d="m 0,0 h -30.034 c -3.443,0 -5.992,3.209 -5.264,6.61 L 19.82,258.975 c 0.535,2.497 2.742,4.26 5.265,4.26 h 30.034 c 3.445,0 5.992,-3.208 5.264,-6.611 L 5.265,4.261 C 4.732,1.764 2.523,0 0,0"
             style="fill:#3a302f;fill-opacity:1;fill-rule:nonzero;stroke:none"
             id="path40" />
        </g>
        <g
           id="g42"
           transform="translate(1315.4395,568.0953)">
          <path
             d="m 0,0 c -0.752,-3.403 1.819,-6.61 5.265,-6.61 h 55.868 c 16.425,0 29.453,4.676 39.108,14.003 9.63,9.328 14.459,20.982 14.459,34.937 0,9.719 -3.518,17.945 -10.554,24.653 -7.035,6.709 -15.914,10.063 -26.588,10.063 H 21.275 c -2.522,0 -4.707,-1.763 -5.264,-4.26 L 0.024,-0.025 Z m -35.882,-145.524 h -34.739 c -3.446,0 -5.992,3.209 -5.265,6.611 l 55.119,252.364 c 0.533,2.497 2.742,4.26 5.265,4.26 H 84.981 c 24.235,0 43.207,-6.782 56.89,-20.321 13.681,-13.563 20.524,-30.455 20.524,-50.702 0,-8.422 -1.116,-16.771 -3.325,-25.07 -2.207,-8.3 -5.942,-16.648 -11.134,-25.07 -5.217,-8.422 -11.669,-15.791 -19.36,-22.108 -7.691,-6.316 -17.589,-11.506 -29.718,-15.594 -12.13,-4.09 -25.741,-6.121 -40.853,-6.121 H -5.727 c -2.523,0 -4.706,-1.763 -5.263,-4.261 l -19.651,-89.751 c -0.533,-2.499 -2.742,-4.261 -5.265,-4.261 z"
             style="fill:#f8635e;fill-opacity:1;fill-rule:nonzero;stroke:none"
             id="path44" />
        </g>
        <g
           id="g46"
           transform="translate(1579.5281,581.2172)">
          <path
             d="m 0,0 c -17.977,0 -32.92,-7.638 -44.784,-22.891 -11.862,-15.252 -17.782,-33.149 -17.782,-53.664 0,-15.253 4.293,-27.421 12.905,-36.504 8.614,-9.083 19.822,-13.613 33.626,-13.613 9.631,0 18.825,2.499 27.557,7.491 8.37,4.8 15.358,10.92 20.986,18.363 0.485,0.636 0.825,1.396 0.995,2.179 l 15.671,70.411 c 0.316,1.42 0.097,2.913 -0.679,4.113 -4.392,6.757 -10.577,12.364 -18.56,16.819 C 21.203,-2.424 11.233,0 0.024,0 Z m -6.26,36.699 c 13.296,0 25.473,-2.84 36.559,-8.495 7.498,-3.82 13.878,-8.643 19.167,-14.445 2.983,-3.281 8.368,-1.959 9.315,2.399 l 2.474,11.507 c 0.533,2.497 2.718,4.284 5.265,4.284 h 30.01 c 3.443,0 5.992,-3.207 5.265,-6.61 L 62.323,-154.409 c -0.559,-2.499 -2.742,-4.261 -5.265,-4.261 H 27 c -3.445,0 -5.992,3.207 -5.264,6.587 l 0.072,0.293 c 1.118,5.116 -4.802,8.594 -8.804,5.239 -13.44,-11.238 -28.87,-16.868 -46.264,-16.868 -21.907,0 -39.448,6.904 -52.596,20.712 -13.173,13.808 -19.748,33.076 -19.748,57.803 0,20.246 3.785,39.538 11.353,57.827 7.571,18.288 19.093,33.467 34.62,45.586 15.502,12.094 33.308,18.165 53.371,18.165 z"
             style="fill:#f8635e;fill-opacity:1;fill-rule:nonzero;stroke:none"
             id="path48" />
        </g>
        <g
           id="g50"
           transform="translate(1672.297,355.0256)">
          <path
             d="m 0,0 9.777,25.926 c 0.971,2.545 3.663,4.064 6.26,3.378 4.002,-1.076 8.78,-1.615 14.361,-1.615 9.898,0 18.389,5.264 25.424,15.791 l 13.683,21.079 c 0.752,1.174 1.044,2.571 0.8,3.943 L 37.433,251.751 c -0.607,3.329 1.942,6.389 5.289,6.389 h 31.61 c 2.645,0 4.876,-1.934 5.313,-4.553 L 100,129.632 c 0.824,-4.968 7.302,-6.242 9.898,-1.957 l 77.704,127.846 c 0.969,1.616 2.716,2.595 4.583,2.595 h 32.583 c 4.246,0 6.817,-4.725 4.559,-8.324 L 93.764,33.172 C 84.109,17.92 74.09,6.928 63.658,0.219 53.227,-6.488 40.831,-9.843 26.516,-9.843 c -8.467,0 -16.083,0.857 -22.827,2.595 -3.106,0.809 -4.805,4.186 -3.665,7.222 z"
             style="fill:#f8635e;fill-opacity:1;fill-rule:nonzero;stroke:none"
             id="path52" />
        </g>
      </g>
    </g>
  </g>
</svg>
