<svg width="141" height="41" viewBox="0 0 141 41" fill="none" xmlns="http://www.w3.org/2000/svg">
<mask id="mask0_1_36" style="mask-type:luminance" maskUnits="userSpaceOnUse" x="0" y="0" width="141" height="41">
<path d="M0.858337 0.80072H140.436V40.7992H0.858337V0.80072Z" fill="white"/>
</mask>
<g mask="url(#mask0_1_36)">
<path fill-rule="evenodd" clip-rule="evenodd" d="M17.1611 2.30067C16.9961 2.20484 16.8661 2.12985 16.6611 2.12985C13.0254 2.12985 11.0671 6.8855 10.0888 9.68206L13.1654 8.84292C14.0045 4.92641 15.6819 3.10981 17.361 2.40983C17.2933 2.37524 17.2266 2.33939 17.1611 2.30067ZM18.7593 6.8855C18.7593 5.34639 18.4793 4.36809 18.2002 3.52896C16.9419 4.08727 15.5428 5.34639 14.7036 8.28378L18.7593 7.16466V6.8855ZM20.0176 6.60551L21.8359 6.04636C21.4167 4.64725 20.5776 3.38813 19.5985 3.10898C19.8785 3.94811 20.0184 4.92724 20.0184 6.18553L20.0176 6.60551ZM30.6472 8.00379C30.7872 8.00379 30.9264 8.14378 30.9264 8.28378C30.9264 8.56377 35.122 37.0935 35.122 37.0935L23.095 39.7518L0.858337 35.5544C0.858337 35.5544 3.6549 13.4586 3.79489 12.7586L3.80239 12.7069C3.93572 11.7745 3.95489 11.6353 5.05401 11.3603C5.37483 11.2537 5.68732 11.1462 5.99314 11.0412C6.88394 10.7354 7.71724 10.4495 8.54971 10.2412C9.38885 7.02549 11.7663 0.731565 16.8019 0.87156C17.501 0.87156 18.3402 1.15072 18.8993 1.98985H19.0393C21.1367 1.98985 22.3959 3.80812 23.095 5.76638C23.795 5.48639 24.2141 5.34639 24.2141 5.34639C24.2416 5.34639 24.2808 5.34139 24.3283 5.33472C24.5158 5.30723 24.8291 5.26306 25.0533 5.48639C25.3324 5.62638 27.4307 7.72463 27.4307 7.72463C27.4307 7.72463 30.3672 8.00379 30.6472 8.00379ZM17.5002 19.1917L19.0393 14.7169C19.0393 14.7169 18.0602 14.0169 15.6828 14.1569C10.508 14.1569 7.85057 17.6534 7.85057 21.29C7.85057 23.7215 9.21469 24.8332 10.4121 25.8098C11.3504 26.5739 12.1862 27.2556 12.1862 28.4222C12.1862 29.1222 11.7663 29.9605 10.648 29.9605C8.9697 29.9605 7.01144 28.2822 7.01144 28.2822L6.03231 31.6387C6.03231 31.6387 7.99057 34.0161 11.7663 34.0161C14.9828 34.0161 17.361 31.6387 17.361 27.863C17.361 24.9665 15.3886 23.5224 13.8478 22.3941C12.8587 21.6699 12.0462 21.0758 12.0462 20.3108C12.0462 19.8908 12.1862 18.4926 14.5637 18.4926C16.2419 18.4926 17.5002 19.1917 17.5002 19.1917Z" fill="#101011"/>
<path fill-rule="evenodd" clip-rule="evenodd" d="M16.6619 2.12985C16.8661 2.12985 16.9961 2.20484 17.1611 2.29984C17.2211 2.33484 17.286 2.37234 17.361 2.40983C15.6828 3.10981 14.0045 4.92641 13.1654 8.84292L10.0888 9.68206C11.0671 6.8855 13.0254 2.12985 16.6619 2.12985ZM18.2002 3.52896C18.4793 4.36809 18.7593 5.34639 18.7593 6.8855V7.16466L14.7045 8.28378C15.5436 5.34639 16.9411 4.0881 18.2002 3.52896ZM21.8359 6.04553L20.0184 6.60551V6.18553C20.0184 4.92724 19.8785 3.94811 19.5985 3.10898C20.5776 3.38896 21.4167 4.64642 21.8359 6.04553ZM30.9272 8.28378C30.9223 8.21113 30.8913 8.14271 30.8398 8.09122C30.7883 8.03973 30.7199 8.00867 30.6472 8.00379C30.4447 8.00379 28.8498 7.85713 27.9848 7.7763C28.8431 7.85713 30.4064 8.00379 30.5072 8.00379C30.6472 8.00379 30.9272 8.14378 30.9272 8.28378ZM23.095 39.7518L0.858337 35.5544C0.858337 35.5544 3.6549 13.4586 3.79489 12.7586L3.80239 12.7069C3.93572 11.7745 3.95489 11.6353 5.05401 11.3603C5.37483 11.2537 5.68732 11.1462 5.99314 11.0412C6.88394 10.7354 7.71724 10.4495 8.54971 10.2412C9.38885 7.02549 11.7663 0.731565 16.8019 0.87156C17.501 0.87156 18.3402 1.15072 18.8993 1.98985H19.0393C21.1367 1.98985 22.3959 3.80812 23.095 5.76638C23.795 5.48639 24.2141 5.34639 24.2141 5.34639C24.2416 5.34639 24.2808 5.34139 24.3283 5.33472C24.4574 5.31556 24.6458 5.28889 24.8241 5.34722H24.7733L23.095 39.7518ZM19.0393 14.716L17.501 19.1917C17.501 19.1917 16.2428 18.4917 14.5637 18.4917C12.1862 18.4917 12.0471 19.8917 12.0471 20.3108C12.0471 21.0758 12.8579 21.6699 13.847 22.3941C15.3886 23.5224 17.361 24.9665 17.361 27.863C17.361 31.6387 14.9836 34.0161 11.7663 34.0161C7.99057 34.0161 6.03314 31.6387 6.03314 31.6387L7.01144 28.2822C7.01144 28.2822 8.9697 29.9605 10.648 29.9605C11.7663 29.9605 12.1862 29.1213 12.1862 28.4222C12.1862 27.2556 11.3504 26.5739 10.4121 25.8098C9.21469 24.8332 7.85057 23.7215 7.85057 21.2891C7.85057 17.6534 10.508 14.1569 15.6828 14.1569C18.0602 14.0169 19.0393 14.716 19.0393 14.716Z" fill="#101011"/>
<path opacity="0.8" d="M30.5076 8.00377C30.3676 8.00377 27.431 7.72378 27.431 7.72378C27.431 7.72378 25.3328 5.62636 25.0528 5.48637C24.9136 5.34637 24.9136 5.34637 24.7736 5.34637L23.0953 39.7509L35.1232 37.0935C35.1232 37.0935 30.9267 8.56292 30.9267 8.28376C30.9267 8.14377 30.6476 8.00377 30.5076 8.00377Z" fill="#101011"/>
<path d="M49.2489 22.9691C47.9906 22.2691 47.4306 21.7108 47.4306 21.0108C47.4306 20.0317 48.2697 19.4725 49.668 19.4725C51.2063 19.4725 52.6055 20.1725 52.6055 20.1725L53.7238 16.8151C53.7238 16.8151 52.7446 15.976 49.808 15.976C45.6123 15.976 42.8149 18.3542 42.8149 21.7108C42.8149 23.669 44.214 25.0665 45.8923 26.0456C47.2906 26.8848 47.8506 27.4447 47.8506 28.2839C47.8506 29.123 47.1506 29.9621 45.7523 29.9621C43.794 29.9621 41.8357 28.983 41.8357 28.983L40.7174 32.3395C40.7174 32.3395 42.3957 33.4578 45.3323 33.4578C49.528 33.4578 52.6055 31.3604 52.6055 27.5839C52.6055 25.4865 51.0663 23.9482 49.2489 22.9691ZM66.171 15.836C64.0735 15.836 62.3952 16.8151 61.1361 18.3534L62.9544 8.84377H58.1995L53.5838 33.0387H58.3395L59.8778 24.7873C60.4369 21.7108 62.1152 19.7525 63.6535 19.7525C64.7727 19.7525 65.1918 20.4517 65.1918 21.5708C65.1918 22.2699 65.1918 22.9691 65.0527 23.6682L63.2344 33.1787H67.9893L69.8076 23.3891C69.9476 22.4099 70.0875 21.1508 70.0875 20.3117C70.0875 17.5143 68.6884 15.8368 66.171 15.8368V15.836ZM78.339 29.683C76.6607 29.683 76.1007 28.2847 76.1007 26.6064C76.1007 23.9482 77.4999 19.4734 80.0173 19.4734C81.6956 19.4734 82.2548 20.8716 82.2548 22.2708C82.2548 25.3473 80.8573 29.683 78.339 29.683ZM80.7165 15.8377C74.9824 15.8377 71.2059 21.0125 71.2059 26.7456C71.2059 30.3821 73.4441 33.3195 77.779 33.3195C83.3739 33.3195 87.1496 28.2847 87.1496 22.4108C87.1496 19.0542 85.1914 15.8377 80.7165 15.8377ZM94.702 29.823C93.4437 29.823 92.7437 29.123 92.7437 29.123L93.5828 24.6482C94.1428 21.7116 95.6811 19.7534 97.3594 19.7534C98.7577 19.7534 99.3177 21.1516 99.3177 22.4108C99.1777 25.4873 97.3594 29.823 94.702 29.823ZM99.3177 15.8377C96.1003 15.8377 94.2828 18.6342 94.2828 18.6342L94.562 16.1177H90.3662C90.2262 17.7951 89.8071 20.4525 89.3871 22.4108L86.0305 39.7518H90.7862L92.0445 32.7604H92.1845C92.1845 32.7604 93.1637 33.3187 94.982 33.3187C100.576 33.3187 104.213 27.5856 104.213 21.8508C104.213 18.7742 102.813 15.8377 99.3177 15.8377ZM110.926 9.1246C109.387 9.1246 108.268 10.3829 108.268 11.9212C108.268 13.3203 109.107 14.2986 110.506 14.2986C112.044 14.2986 113.303 13.3203 113.303 11.502C113.303 10.1029 112.324 9.1246 110.926 9.1246ZM104.353 33.0395H109.107L112.324 16.2568H107.569L104.353 33.0395ZM124.352 16.2568H120.996L121.135 15.4177C121.415 13.7394 122.394 12.3411 123.932 12.3411C124.771 12.3411 125.47 12.6203 125.47 12.6203L126.45 8.84461C126.45 8.84461 125.61 8.42462 123.932 8.42462C122.254 8.42462 120.576 8.84461 119.317 9.96373C117.639 11.362 116.939 13.3203 116.52 15.2777L116.38 16.1168H114.142L113.443 19.7534H115.681L113.163 33.0395H117.918L120.436 19.7534H123.652L124.352 16.2568ZM135.68 16.2568C135.68 16.2568 132.743 23.669 131.344 27.7247C131.204 26.4664 130.225 16.2568 130.225 16.2568H125.191L127.988 31.6412C127.988 31.9204 127.988 32.1996 127.848 32.4804C127.289 33.5987 126.31 34.5778 125.33 35.2769C124.491 35.9769 123.373 36.3961 122.674 36.6752L123.932 40.7317C124.911 40.5917 126.869 39.7526 128.547 38.2143C130.645 36.2561 132.743 33.0395 134.701 28.8438L140.435 16.3968L135.68 16.2568Z" fill="#101011"/>
</g>
</svg>
