<?xml version="1.0" encoding="UTF-8" standalone="no"?>
<!-- Created with Inkscape (http://www.inkscape.org/) -->

<svg
   version="1.1"
   id="svg2"
   width="2560"
   height="1440"
   viewBox="0 0 2560 1440"
   sodipodi:docname="Smart Market.ai"
   xmlns:inkscape="http://www.inkscape.org/namespaces/inkscape"
   xmlns:sodipodi="http://sodipodi.sourceforge.net/DTD/sodipodi-0.dtd"
   xmlns="http://www.w3.org/2000/svg"
   xmlns:svg="http://www.w3.org/2000/svg">
  <defs
     id="defs6">
    <clipPath
       clipPathUnits="userSpaceOnUse"
       id="clipPath16">
      <path
         d="M 10,284.857 H 1910 V 795.143 H 10 Z"
         id="path14" />
    </clipPath>
  </defs>
  <sodipodi:namedview
     id="namedview4"
     pagecolor="#ffffff"
     bordercolor="#000000"
     borderopacity="0.25"
     inkscape:showpageshadow="2"
     inkscape:pageopacity="0.0"
     inkscape:pagecheckerboard="0"
     inkscape:deskcolor="#d1d1d1" />
  <g
     id="g8"
     inkscape:groupmode="layer"
     inkscape:label="Smart Market"
     transform="matrix(1.3333333,0,0,-1.3333333,0,1440)">
    <g
       id="g10">
      <g
         id="g12"
         clip-path="url(#clipPath16)">
        <g
           id="g18"
           transform="translate(618.0244,580.4428)">
          <path
             d="m 0,0 h 46.781 c 1.281,0 2.559,-0.708 3.129,-1.846 l 56.593,-102.171 c 1.422,-2.41 4.978,-2.41 6.257,0 l 56.592,102.171 c 0.57,1.138 1.849,1.846 3.13,1.846 h 46.781 c 1.992,0 3.555,-1.561 3.555,-3.548 v -203.348 c 0,-1.987 -1.563,-3.548 -3.555,-3.548 h -45.359 c -1.992,0 -3.555,1.561 -3.555,3.548 v 104.443 c 0,3.688 -4.978,4.964 -6.683,1.702 l -50.906,-91.811 c -1.423,-2.413 -4.976,-2.413 -6.257,0 l -50.906,91.811 c -1.849,3.262 -6.683,1.986 -6.683,-1.702 v -104.443 c 0,-1.987 -1.563,-3.548 -3.556,-3.548 H 0 c -1.992,0 -3.556,1.561 -3.556,3.548 V -3.548 C -3.556,-1.561 -1.992,0 0,0"
             style="fill:#282929;fill-opacity:1;fill-rule:nonzero;stroke:none"
             id="path20" />
        </g>
        <g
           id="g22"
           transform="translate(1000.6709,446.4847)">
          <path
             d="m 0,0 -20.192,51.227 c -1.137,2.98 -5.545,2.98 -6.682,0 L -47.066,0 c -0.996,-2.41 0.853,-4.967 3.412,-4.967 h 40.383 c 2.56,0 4.267,2.557 3.412,4.967 z m 15.784,-45.977 h -78.633 c -1.423,0 -2.845,-0.85 -3.271,-2.269 l -10.523,-26.112 c -0.568,-1.417 -1.849,-2.269 -3.271,-2.269 h -51.189 c -2.559,0 -4.267,2.554 -3.412,4.967 l 80.623,203.346 c 0.57,1.42 1.848,2.272 3.412,2.272 H 3.556 c 1.422,0 2.842,-0.852 3.412,-2.272 L 87.593,-71.66 c 0.993,-2.413 -0.855,-4.967 -3.415,-4.967 H 32.989 c -1.422,0 -2.844,0.852 -3.27,2.269 l -10.524,26.112 c -0.567,1.419 -1.848,2.269 -3.27,2.269 z"
             style="fill:#282929;fill-opacity:1;fill-rule:nonzero;stroke:none"
             id="path24" />
        </g>
        <g
           id="g26"
           transform="translate(1164.4753,487.0687)">
          <path
             d="m 0,0 c 0,-1.984 1.563,-3.548 3.556,-3.548 h 36.968 c 18.202,0 31,9.794 31,24.551 0,14.758 -12.942,24.548 -31,24.548 H 3.556 C 1.563,45.551 0,43.99 0,42.004 V 0.144 Z m 71.098,-115.791 -40.383,57.469 c -3.13,4.4 -8.108,6.954 -13.509,6.954 H 3.556 C 1.563,-51.368 0,-52.929 0,-54.915 v -58.748 c 0,-1.987 -1.563,-3.548 -3.556,-3.548 h -45.358 c -1.992,0 -3.556,1.561 -3.556,3.548 V 89.685 c 0,1.987 1.564,3.548 3.556,3.548 h 94.416 c 46.355,0 80.196,-29.659 80.196,-72.371 0,-29.092 -15.783,-52.505 -40.809,-64.141 -1.989,-0.994 -2.844,-3.407 -1.563,-5.25 l 44.506,-63.148 c 1.707,-2.413 0,-5.675 -2.986,-5.675 H 74.084 c -1.138,0 -2.275,0.567 -2.986,1.561"
             style="fill:#282929;fill-opacity:1;fill-rule:nonzero;stroke:none"
             id="path28" />
        </g>
        <g
           id="g30"
           transform="translate(1327.574,580.4428)">
          <path
             d="m 0,0 h 45.361 c 1.99,0 3.556,-1.561 3.556,-3.548 v -76.627 c 0,-3.265 4.123,-4.825 6.256,-2.413 l 70.954,81.31 C 126.839,-0.426 127.835,0 128.828,0 h 52.614 c 3.127,0 4.69,-3.689 2.701,-5.961 L 111.196,-87.27 c -1.137,-1.278 -1.278,-3.124 -0.285,-4.541 l 80.625,-113.098 c 1.708,-2.414 0,-5.676 -2.985,-5.676 h -54.46 c -1.14,0 -2.277,0.567 -2.988,1.561 l -55.597,78.187 c -1.281,1.846 -3.982,1.987 -5.545,0.426 l -20.336,-21.852 c 0,0 -0.993,-1.561 -0.993,-2.413 v -52.362 c 0,-1.986 -1.564,-3.547 -3.556,-3.547 H -0.285 c -1.99,0 -3.553,1.561 -3.553,3.547 V -3.689 c 0,1.987 1.563,3.548 3.553,3.548 z"
             style="fill:#282929;fill-opacity:1;fill-rule:nonzero;stroke:none"
             id="path32" />
        </g>
        <g
           id="g34"
           transform="translate(1594.7601,517.0128)">
          <path
             d="m 0,0 c 0,-9.082 7.394,-16.462 16.495,-16.462 h 83.182 c 1.992,0 3.556,-1.561 3.556,-3.548 v -39.731 c 0,-1.987 -1.564,-3.548 -3.556,-3.548 H 3.697 c -1.992,0 -3.556,-1.561 -3.556,-3.548 v -29.944 c 0,-1.984 1.564,-3.547 3.556,-3.547 H 110.2 c 1.99,0 3.556,-1.561 3.556,-3.548 v -39.732 c 0,-1.986 -1.566,-3.547 -3.556,-3.547 H -48.773 c -1.992,0 -3.556,1.561 -3.556,3.547 V 59.741 c 0,1.987 1.564,3.548 3.556,3.548 H 110.2 c 1.99,0 3.556,-1.561 3.556,-3.548 V 20.007 c 0,-1.987 -1.566,-3.548 -3.556,-3.548 H 16.636 C 7.535,16.459 0.141,9.082 0.141,0 Z"
             style="fill:#282929;fill-opacity:1;fill-rule:nonzero;stroke:none"
             id="path36" />
        </g>
        <g
           id="g38"
           transform="translate(1789.9906,533.4722)">
          <path
             d="m 0,0 h -57.022 c -1.989,0 -3.553,1.561 -3.553,3.548 v 39.734 c 0,1.987 1.564,3.548 3.553,3.548 h 173.337 c 1.99,0 3.553,-1.561 3.553,-3.548 V 3.548 C 119.868,1.561 118.305,0 116.315,0 H 59.579 c -1.99,0 -3.556,-1.561 -3.556,-3.548 v -156.519 c 0,-1.987 -1.564,-3.547 -3.553,-3.547 H 7.109 c -1.99,0 -3.556,1.56 -3.556,3.547 V -3.548 C 3.553,-1.561 1.99,0 0,0"
             style="fill:#282929;fill-opacity:1;fill-rule:nonzero;stroke:none"
             id="path40" />
        </g>
        <g
           id="g42"
           transform="translate(437.3724,457.236)">
          <path
             d="m 0,0 c -44.965,-65.07 -106.058,-100.887 -172.148,-100.887 -66.09,0 -127.041,35.817 -172.148,100.887 -11.134,16.267 -6.994,38.527 9.135,49.658 16.273,11.272 38.541,7.136 49.675,-8.99 31.26,-45.377 71.514,-70.208 113.338,-70.208 41.824,0 82.077,24.831 113.338,70.208 11.275,16.126 33.543,20.262 49.674,8.99 C 7.136,38.527 11.134,16.267 0,0 m 11.704,337.907 h -367.705 c -39.397,0 -71.371,-31.964 -71.371,-71.348 V 84.477 c 0,-141.841 115.05,-256.856 256.936,-256.856 70.086,0 133.465,28.397 179.285,74.203 45.819,45.807 74.227,109.163 74.227,179.227 v 185.508 c 0,39.384 -31.833,71.348 -71.372,71.348"
             style="fill:#2bb16d;fill-opacity:1;fill-rule:nonzero;stroke:none"
             id="path44" />
        </g>
        <g
           id="g46"
           transform="translate(904.2621,793.0176)">
          <path
             d="m 0,0 h -30.004 c -1.278,0 -2.559,-0.711 -3.127,-1.846 l -37.112,-67.121 c -1.422,-2.411 -4.837,-2.411 -6.259,0 l -37.254,67.121 c -0.57,1.135 -1.848,1.846 -3.129,1.846 h -30.001 c -1.993,0 -3.556,-1.563 -3.556,-3.548 v -136.086 c 0,-1.987 1.563,-3.547 3.556,-3.547 h 28.581 c 1.99,0 3.553,1.56 3.553,3.547 v 65.702 c 0,3.689 4.834,4.965 6.683,1.702 l 31.711,-57.046 c 1.422,-2.413 4.834,-2.413 6.256,0 l 31.426,56.905 c 1.849,3.263 6.683,1.987 6.683,-1.705 v -65.558 c 0,-1.987 1.563,-3.547 3.553,-3.547 H 0.141 c 1.992,0 3.556,1.56 3.556,3.547 V -3.691 c 0,1.986 -1.564,3.547 -3.556,3.547 z"
             style="fill:#adadad;fill-opacity:1;fill-rule:nonzero;stroke:none"
             id="path48" />
        </g>
        <g
           id="g50"
           transform="translate(1012.1903,698.65)">
          <path
             d="m 0,0 h -24.032 c -2.56,0 -4.267,2.554 -3.271,4.826 l 11.946,30.65 c 1.137,2.98 5.401,2.98 6.682,0 L 3.412,4.826 C 4.264,2.554 2.557,0 0.141,0 Z m 8.816,92.096 c -0.57,1.419 -1.848,2.272 -3.271,2.272 h -35.123 c -1.422,0 -2.844,-0.853 -3.27,-2.272 L -86.74,-43.99 c -0.994,-2.27 0.855,-4.824 3.27,-4.824 h 32.42 c 1.422,0 2.703,0.85 3.27,2.269 l 6.542,16.463 c 0.57,1.419 1.848,2.269 3.271,2.269 h 51.899 c 1.423,0 2.704,-0.85 3.271,-2.269 l 6.542,-16.463 c 0.57,-1.419 1.848,-2.269 3.27,-2.269 h 32.564 c 2.559,0 4.264,2.554 3.27,4.824 L 8.672,92.096 Z"
             style="fill:#adadad;fill-opacity:1;fill-rule:nonzero;stroke:none"
             id="path52" />
        </g>
        <g
           id="g54"
           transform="translate(1154.9509,727.0306)">
          <path
             d="m 0,0 h -23.888 c -1.99,0 -3.554,1.561 -3.554,3.548 v 26.111 c 0,1.987 1.564,3.548 3.554,3.548 H 0 c 12.372,0 21.188,-6.669 21.188,-16.604 C 21.188,6.669 12.372,0 0,0 m 29.862,-31.502 c -1.281,1.846 -0.57,4.256 1.423,5.249 16.351,8.089 26.589,23.558 26.589,42.997 0,28.948 -22.892,49.243 -54.603,49.243 h -62.85 c -1.989,0 -3.555,-1.563 -3.555,-3.548 V -73.647 c 0,-1.987 1.566,-3.547 3.555,-3.547 h 28.582 c 1.989,0 3.555,1.56 3.555,3.547 v 37.604 c 0,1.987 1.564,3.548 3.554,3.548 h 11.945 c 1.137,0 2.275,-0.568 2.845,-1.561 l 29.575,-41.719 c 0.711,-0.993 1.707,-1.563 2.844,-1.563 h 31.852 c 2.842,0 4.549,3.265 2.842,5.678 l -28.296,40.158 z"
             style="fill:#adadad;fill-opacity:1;fill-rule:nonzero;stroke:none"
             id="path56" />
        </g>
        <g
           id="g58"
           transform="translate(1346.7694,793.0176)">
          <path
             d="m 0,0 h -115.604 c -1.99,0 -3.553,-1.563 -3.553,-3.548 v -24.691 c 0,-1.987 1.563,-3.548 3.553,-3.548 h 36.686 c 1.992,0 3.556,-1.561 3.556,-3.548 v -104.158 c 0,-1.986 1.563,-3.547 3.556,-3.547 h 28.437 c 1.992,0 3.556,1.561 3.556,3.547 v 104.015 c 0,1.986 1.563,3.547 3.556,3.547 H 0 c 1.992,0 3.556,1.564 3.556,3.548 v 24.692 c 0,1.986 -1.564,3.547 -3.556,3.547 z"
             style="fill:#adadad;fill-opacity:1;fill-rule:nonzero;stroke:none"
             id="path60" />
        </g>
        <g
           id="g62"
           transform="translate(680.3065,736.821)">
          <path
             d="m 0,0 c -21.473,4.541 -28.155,7.521 -28.155,16.177 0,7.095 6.4,12.486 17.917,12.486 13.365,0 27.585,-5.25 40.95,-15.325 l 9.671,-7.236 c 0.852,-0.994 1.99,-1.42 3.412,-1.42 2.701,0 4.834,2.128 4.834,4.826 v 25.683 c 0,2.272 -0.993,4.541 -2.701,5.819 -14.787,11.21 -32.704,17.312 -55.314,17.312 -30.43,0 -51.9,-16.036 -54.459,-40.869 -0.285,-1.702 -0.285,-3.404 -0.285,-5.108 0,-1.702 0,-3.548 0.285,-5.25 2.559,-24.266 24.314,-32.072 53.037,-38.456 21.046,-5.108 27.588,-6.954 27.588,-15.469 0,-7.803 -6.827,-13.196 -20.336,-13.196 -14.646,0 -27.87,4.541 -39.957,12.914 l -7.25,5.25 -9.244,6.812 c 0,0 -0.994,0.709 -1.705,0.709 -1.281,0 -2.418,-1.135 -2.418,-2.413 v -30.794 c 0,-2.41 0.996,-4.682 3.129,-6.101 15.925,-10.643 35.264,-16.319 56.167,-16.319 35.264,0 57.304,18.164 57.304,46.83 0,6.81 -1.137,12.486 -3.982,17.453 -7.394,13.908 -24.741,20.292 -48.773,25.4 z"
             style="fill:#adadad;fill-opacity:1;fill-rule:nonzero;stroke:none"
             id="path64" />
        </g>
      </g>
    </g>
  </g>
</svg>
