<svg width="135" height="41" viewBox="0 0 135 41" fill="none" xmlns="http://www.w3.org/2000/svg">
<mask id="mask0_1_52" style="mask-type:luminance" maskUnits="userSpaceOnUse" x="0" y="0" width="134" height="41">
<path d="M0.459198 0.801575H133.818V40.7984H0.459198V0.801575Z" fill="white"/>
</mask>
<g mask="url(#mask0_1_52)">
<path d="M20.4582 0.801575C9.41292 0.801575 0.459198 9.75503 0.459198 20.8C0.459198 31.8449 9.41292 40.7984 20.4582 40.7984C31.5035 40.7984 40.4572 31.8449 40.4572 20.8C40.4572 9.75586 31.5035 0.801575 20.4582 0.801575ZM29.6294 29.6443C29.5442 29.7842 29.4323 29.9059 29.3 30.0026C29.1677 30.0992 29.0177 30.1687 28.8584 30.2073C28.6992 30.2458 28.534 30.2526 28.3721 30.2272C28.2103 30.2018 28.0551 30.1447 27.9153 30.0592C23.2189 27.1886 17.3075 26.5404 10.3462 28.1311C10.1867 28.1675 10.0215 28.1721 9.86018 28.1446C9.69885 28.1172 9.54451 28.0582 9.40596 27.9711C9.26742 27.8841 9.14738 27.7705 9.05271 27.6371C8.95804 27.5036 8.89058 27.3528 8.8542 27.1932C8.81781 27.0337 8.81321 26.8685 8.84065 26.7072C8.86809 26.5459 8.92704 26.3916 9.01413 26.253C9.10122 26.1145 9.21474 25.9944 9.34822 25.8998C9.4817 25.8051 9.63252 25.7376 9.79207 25.7013C17.41 23.9597 23.9447 24.7097 29.2161 27.9302C29.8036 28.2911 29.9894 29.0577 29.6294 29.6451V29.6443ZM32.0768 24.1997C31.8605 24.552 31.5132 24.8041 31.1112 24.9005C30.7091 24.9969 30.2853 24.9297 29.9327 24.7138C24.558 21.4099 16.3626 20.4525 10.0046 22.3832C9.60863 22.5032 9.18128 22.4611 8.81632 22.2663C8.45136 22.0715 8.17863 21.7398 8.05799 21.3441C7.93856 20.9483 7.98097 20.5213 8.17592 20.1567C8.37086 19.7921 8.70244 19.5197 9.09793 19.3993C16.3609 17.1961 25.3905 18.2635 31.5635 22.0574C31.7379 22.1644 31.8896 22.3047 32.0098 22.4703C32.13 22.636 32.2164 22.8236 32.2641 23.0226C32.3117 23.2217 32.3197 23.4281 32.2876 23.6302C32.2554 23.8323 32.1838 24.0253 32.0768 24.1997ZM32.2876 18.5302C25.8404 14.7005 15.2076 14.3497 9.05294 16.217C8.57822 16.361 8.06575 16.3105 7.62827 16.0766C7.41165 15.9609 7.21996 15.8035 7.06414 15.6137C6.90832 15.4238 6.79143 15.2051 6.72014 14.97C6.64884 14.735 6.62455 14.4882 6.64863 14.2438C6.67272 13.9993 6.74471 13.762 6.86051 13.5454C7.09437 13.1079 7.49244 12.7813 7.96716 12.6373C15.031 10.4933 26.7746 10.9074 34.1959 15.3121C34.6149 15.5689 34.9161 15.9803 35.0343 16.4575C35.1524 16.9346 35.078 17.439 34.8272 17.8617C34.5764 18.2844 34.1693 18.5914 33.6939 18.7163C33.2185 18.8413 32.713 18.7741 32.2868 18.5293L32.2876 18.5302ZM54.8698 19.2634C51.4167 18.4402 50.8017 17.8619 50.8017 16.647C50.8017 15.5004 51.8816 14.7288 53.4882 14.7288C55.0448 14.7288 56.5889 15.3146 58.208 16.522C58.2321 16.5402 58.2597 16.5534 58.289 16.5607C58.3184 16.568 58.3489 16.5693 58.3788 16.5646C58.4087 16.5598 58.4373 16.5491 58.4629 16.5331C58.4885 16.517 58.5107 16.496 58.528 16.4712L60.2137 14.0947C60.2472 14.0475 60.2614 13.9892 60.2534 13.9319C60.2453 13.8746 60.2156 13.8225 60.1704 13.7864C58.2447 12.2415 56.0748 11.4899 53.5391 11.4899C49.8109 11.4899 47.206 13.7272 47.206 16.9278C47.206 20.3609 49.4534 21.5766 53.3349 22.5148C56.6397 23.2756 57.1972 23.9131 57.1972 25.053C57.1972 26.3162 56.0698 27.1011 54.2549 27.1011C52.2391 27.1011 50.595 26.4229 48.756 24.8297C48.7095 24.7915 48.6502 24.7724 48.5901 24.7763C48.5603 24.7785 48.5313 24.7867 48.5046 24.8003C48.478 24.8139 48.4544 24.8326 48.4351 24.8555L46.5444 27.1053C46.5063 27.1502 46.4873 27.2082 46.4915 27.267C46.4957 27.3257 46.5228 27.3805 46.5669 27.4195C48.7068 29.3293 51.3383 30.3384 54.1782 30.3384C58.1963 30.3384 60.792 28.1427 60.792 24.7455C60.7995 21.8774 59.0821 20.2892 54.8765 19.2668L54.8698 19.2634ZM69.8807 15.8579C68.1392 15.8579 66.7117 16.5437 65.5335 17.9494V16.367C65.5332 16.3073 65.5095 16.2501 65.4674 16.2079C65.4252 16.1656 65.3681 16.1416 65.3085 16.1412H62.2161C62.1562 16.1412 62.0986 16.165 62.0561 16.2073C62.0137 16.2496 61.9897 16.307 61.9895 16.367V33.9439C61.9895 34.0689 62.0911 34.1706 62.2161 34.1706H65.3076C65.4326 34.1706 65.5335 34.0689 65.5335 33.9439V28.396C66.7117 29.7176 68.14 30.3634 69.8816 30.3634C73.1164 30.3634 76.3921 27.8728 76.3921 23.1115C76.3971 18.3493 73.1206 15.8579 69.8841 15.8579H69.8807ZM72.7973 23.1115C72.7973 25.5363 71.3032 27.2278 69.1649 27.2278C67.0509 27.2278 65.456 25.4596 65.456 23.1115C65.456 20.7642 67.0509 18.9951 69.1649 18.9951C71.269 18.9951 72.7973 20.7258 72.7973 23.1115ZM84.7875 15.8579C80.621 15.8579 77.3562 19.066 77.3562 23.164C77.3562 27.2161 80.5977 30.3909 84.7367 30.3909C88.919 30.3909 92.193 27.1928 92.193 23.1115C92.193 19.0451 88.9406 15.8579 84.7875 15.8579ZM84.7875 27.2528C82.5709 27.2528 80.9002 25.4713 80.9002 23.1106C80.9002 20.7392 82.5134 19.0193 84.7367 19.0193C86.9674 19.0193 88.6498 20.8 88.6498 23.1623C88.6498 25.5329 87.0249 27.2528 84.7875 27.2528ZM101.092 16.1412H97.6894V12.6623C97.6895 12.6326 97.6837 12.6031 97.6724 12.5756C97.6611 12.5481 97.6445 12.5231 97.6235 12.5021C97.6025 12.481 97.5776 12.4643 97.5501 12.4529C97.5227 12.4415 97.4933 12.4356 97.4635 12.4356H94.372C94.3119 12.4356 94.2543 12.4595 94.2118 12.502C94.1692 12.5445 94.1454 12.6022 94.1454 12.6623V16.1412H92.6588C92.599 16.1414 92.5418 16.1653 92.4996 16.2076C92.4575 16.2499 92.4338 16.3073 92.4338 16.367V19.0251C92.4338 19.1493 92.5346 19.2509 92.6588 19.2509H94.1454V26.1271C94.1454 28.9052 95.5286 30.3142 98.256 30.3142C99.3651 30.3142 100.285 30.0851 101.153 29.5935C101.187 29.5737 101.216 29.5451 101.236 29.5105C101.256 29.476 101.267 29.4367 101.267 29.3968V26.867C101.267 26.8283 101.257 26.7902 101.238 26.7563C101.219 26.7224 101.192 26.694 101.159 26.6736C101.126 26.6532 101.089 26.6416 101.05 26.6398C101.011 26.6381 100.973 26.6463 100.938 26.6637C100.378 26.9548 99.755 27.1053 99.1235 27.102C98.1318 27.102 97.6894 26.652 97.6894 25.6421V19.2526H101.092C101.121 19.2526 101.151 19.2467 101.178 19.2353C101.206 19.2239 101.23 19.2072 101.251 19.1861C101.272 19.1651 101.289 19.1401 101.3 19.1126C101.311 19.0851 101.317 19.0556 101.317 19.026V16.3687C101.318 16.339 101.313 16.3095 101.302 16.2818C101.292 16.2541 101.275 16.2289 101.255 16.2077C101.234 16.1865 101.209 16.1697 101.182 16.1584C101.154 16.1471 101.125 16.1415 101.095 16.142L101.092 16.1412ZM112.946 16.1545V15.7271C112.946 14.4705 113.429 13.9105 114.509 13.9105C115.153 13.9105 115.672 14.038 116.251 14.2313C116.285 14.2426 116.321 14.2455 116.357 14.24C116.392 14.2344 116.426 14.2206 116.455 14.1995C116.484 14.1784 116.508 14.1508 116.524 14.1188C116.54 14.0868 116.548 14.0514 116.548 14.0155V11.4107C116.548 11.3623 116.533 11.3151 116.504 11.2761C116.475 11.2371 116.435 11.2083 116.388 11.1941C115.776 11.0108 114.992 10.8241 113.819 10.8241C110.963 10.8241 109.454 12.4323 109.454 15.4737V16.127H107.968C107.908 16.127 107.85 16.1509 107.808 16.1934C107.765 16.2359 107.741 16.2936 107.741 16.3537V19.0243C107.741 19.1493 107.843 19.2509 107.968 19.2509H109.454V29.8559C109.454 29.9809 109.554 30.0826 109.679 30.0826H112.771C112.831 30.0824 112.889 30.0584 112.931 30.016C112.974 29.9735 112.998 29.916 112.998 29.8559V19.2518H115.884L120.307 29.8543C119.804 30.9683 119.311 31.19 118.637 31.19C118.092 31.19 117.518 31.0275 116.932 30.7067C116.904 30.692 116.874 30.6829 116.843 30.6801C116.813 30.6772 116.781 30.6806 116.752 30.69C116.722 30.7001 116.695 30.7161 116.672 30.737C116.65 30.7579 116.631 30.7834 116.618 30.8117L115.57 33.1107C115.546 33.1626 115.543 33.2216 115.561 33.2757C115.579 33.3299 115.617 33.3751 115.668 33.4023C116.762 33.9956 117.749 34.2481 118.97 34.2481C121.252 34.2481 122.515 33.1848 123.627 30.3234L128.991 16.4637C129.004 16.4294 129.009 16.3926 129.004 16.3562C129 16.3198 128.987 16.285 128.967 16.2548C128.946 16.2245 128.918 16.1997 128.886 16.1823C128.854 16.165 128.818 16.1558 128.781 16.1554H125.562C125.515 16.1553 125.469 16.1699 125.431 16.197C125.393 16.2242 125.364 16.2626 125.348 16.307L122.051 25.7246L118.439 16.3003C118.423 16.2576 118.394 16.2209 118.356 16.195C118.319 16.1691 118.274 16.1552 118.228 16.1554H112.945L112.946 16.1545ZM106.073 16.1404H102.982C102.952 16.1404 102.922 16.1462 102.895 16.1576C102.867 16.169 102.842 16.1857 102.821 16.2067C102.8 16.2278 102.784 16.2528 102.772 16.2803C102.761 16.3078 102.755 16.3372 102.755 16.367V29.8559C102.755 29.9809 102.857 30.0826 102.982 30.0826H106.073C106.198 30.0826 106.3 29.9809 106.3 29.8559V16.3687C106.3 16.3387 106.294 16.309 106.283 16.2812C106.271 16.2538 106.255 16.229 106.234 16.2078C106.191 16.1658 106.133 16.1411 106.073 16.1404ZM104.545 9.99918C104.254 9.9989 103.965 10.056 103.696 10.1672C103.427 10.2783 103.182 10.4414 102.976 10.6471C102.77 10.8528 102.607 11.0971 102.495 11.366C102.383 11.635 102.326 11.9232 102.325 12.2144C102.325 12.5056 102.382 12.794 102.493 13.0631C102.605 13.3322 102.768 13.5768 102.973 13.7829C103.179 13.989 103.423 14.1526 103.692 14.2642C103.961 14.3759 104.249 14.4335 104.541 14.4338C105.129 14.4345 105.693 14.2015 106.109 13.7862C106.526 13.3708 106.76 12.8071 106.761 12.219C106.761 11.6309 106.528 11.0667 106.113 10.6504C105.698 10.2341 105.133 9.99984 104.545 9.99918ZM131.631 20.4775C131.345 20.4787 131.061 20.4233 130.797 20.3144C130.532 20.2055 130.292 20.0452 130.09 19.843C129.888 19.6407 129.727 19.4004 129.618 19.1359C129.51 18.8714 129.454 18.5879 129.455 18.3018C129.455 18.0146 129.512 17.7301 129.622 17.4647C129.731 17.1992 129.893 16.9581 130.096 16.7549C130.299 16.5518 130.54 16.3907 130.805 16.2808C131.071 16.1709 131.355 16.1144 131.643 16.1145C131.929 16.1133 132.212 16.1687 132.477 16.2776C132.741 16.3864 132.981 16.5466 133.184 16.7488C133.386 16.9509 133.546 17.1912 133.655 17.4556C133.764 17.72 133.819 18.0034 133.818 18.2893C133.818 18.8695 133.588 19.426 133.178 19.8363C132.768 20.2467 132.211 20.4773 131.631 20.4775ZM131.643 16.3312C130.529 16.3312 129.685 17.2169 129.685 18.3018C129.685 19.3859 130.523 20.26 131.632 20.26C132.746 20.26 133.59 19.3751 133.59 18.2893C133.59 17.2053 132.751 16.3312 131.643 16.3312ZM132.125 18.5135L132.741 19.3751H132.222L131.668 18.5835H131.191V19.3751H130.757V17.0911H131.775C132.306 17.0911 132.655 17.3619 132.655 17.8194C132.658 18.1944 132.44 18.4227 132.128 18.5135H132.125ZM131.758 17.4827H131.191V18.2052H131.758C132.04 18.2052 132.209 18.0669 132.209 17.8436C132.209 17.6086 132.039 17.4827 131.758 17.4827Z" fill="#101011"/>
</g>
</svg>
